<svg xmlns="http://www.w3.org/2000/svg" xmlns:xlink="http://www.w3.org/1999/xlink" viewBox="0 0 540 540"><defs><style>.a{fill:none;}.b{clip-path:url(#a);}.c{fill:url(#b);}</style><clipPath id="a"><path class="a" d="M394.12,110.59h-.31a92.18,92.18,0,0,1-1.13,13.86,86.56,86.56,0,0,1-94,72.52q3.24-2.83,6.21-6A98.74,98.74,0,0,0,331,138.47a104.49,104.49,0,0,0,1.27-15.7v0a98.86,98.86,0,0,0-61-91.28,85.33,85.33,0,0,1,12-4.4,87,87,0,0,1,23.8-3.3,85.72,85.72,0,0,1,29.46,5.17,88,88,0,0,1,41.42,31.6,87.05,87.05,0,0,1,15.9,50.07h.31ZM500,312.85v-.36a7.72,7.72,0,0,0-.95-3.6l-.05-.1-1.33-1.2v-.73c-.06-.08-.13-.15-.2-.23a260.44,260.44,0,0,0-58.24-47,259.31,259.31,0,0,0-149-35.61q-10.2.68-20.16,2.08a279.29,279.29,0,0,1,28.14,5.33,269.21,269.21,0,0,1,73.64,30.05,272.51,272.51,0,0,1,61,49.17,22.27,22.27,0,0,1,2,2.6l1.34,1.35v.31l.33.36v.84a19.65,19.65,0,0,1,2,8.53v.2c.07,4.08,0,8.2,0,12.18q0,3,0,6v10.27a16.66,16.66,0,0,1,5.4-1c1.91,0,3.82,0,5.73,0a21.18,21.18,0,0,1,9.09,1.65,16.31,16.31,0,0,1,8.43,9.71c1,3,.76,6.44.76,9.6v29.38h28.33l3.79,0V330.87q0-3,0-6.08C500,320.87,500,316.81,500,312.85ZM467.89,442.77c.05,6.51-.05,13-.05,19.56v7.3h13.9c3.17,0,6.34,0,9.51,0h.7a8.22,8.22,0,0,0,8-8V442.77Zm-142.11-320-5.5,0a87.13,87.13,0,0,0-15.9-50.07A88,88,0,0,0,263,41.08q-2.73-1-5.52-1.8c-2.3-.67-4.64-1.24-7-1.71l-.67-.12c-.21-.05-.43-.09-.64-.12-2.43-.45-4.89-.79-7.36-1-2.75-.26-5.52-.39-8.29-.39a86.84,86.84,0,0,0-36.18,165.82,87.73,87.73,0,0,0,53.76,6.07,84.08,84.08,0,0,0,18.15-5.9c2.25-1,4.46-2.13,6.61-3.35l.61-.34.56-.32q3.11-1.8,6.06-3.87a86.68,86.68,0,0,0,36.09-57.39,92.18,92.18,0,0,0,1.13-13.86Zm-5.09,0h-.41a87.13,87.13,0,0,0-15.9-50.07A88,88,0,0,0,263,41.08q-2.73-1-5.52-1.8c-2.3-.67-4.64-1.24-7-1.71l-.67-.12c-.21-.05-.43-.09-.64-.12-2.43-.45-4.89-.79-7.36-1-2.75-.26-5.52-.39-8.29-.39a86.84,86.84,0,0,0-36.18,165.82,87.73,87.73,0,0,0,53.76,6.07,84.08,84.08,0,0,0,18.15-5.9c2.25-1,4.46-2.13,6.61-3.35l.61-.34.56-.32q3.11-1.8,6.06-3.87a86.68,86.68,0,0,0,36.09-57.39,92.18,92.18,0,0,0,1.13-13.86h.41ZM426.43,325v-.36a7.72,7.72,0,0,0-.95-3.6l-.12-.21-1.26-1.26V319l-.2-.23a260.44,260.44,0,0,0-58.24-47,259.19,259.19,0,0,0-137.94-36.09c-3.7.07-7.41.24-11.1.48-2.76.18-5.51.41-8.25.67l-1.75.17-1.79.2q-10,1.08-19.66,2.89a247.14,247.14,0,0,0-44.32,12.46,252.59,252.59,0,0,0-68.16,38.57,252.36,252.36,0,0,0-26.76,24c-1,1-1.91,2-2.86,3A10,10,0,0,0,40,324.89v.39c0,.54,0,1.08,0,1.62V473.79a8.22,8.22,0,0,0,8,8H408.2c3.18,0,6.35,0,9.52,0h.69a7.4,7.4,0,0,0,1.57-.17,8.37,8.37,0,0,0,6.07-5.5l.15-.5c0-.17.07-.33.1-.5a6.69,6.69,0,0,0,.13-1.34v-31c-6.09,0-12.19-.06-18.27-.06H393.7a16.81,16.81,0,0,1-11-4.22,16.41,16.41,0,0,1-5.37-11.9c0-1.91,0-3.82,0-5.73a21.18,21.18,0,0,1,1.65-9.09,16.33,16.33,0,0,1,9.72-8.43c3-1,6.43-.76,9.6-.76h28.09V343q0-3,0-6.08C426.47,333,426.5,329,426.43,325Zm78.89,89.34h0c-.25-.16-.5-.33-.77-.48l-.2-.11h0c-.31-.07-1-.35-1.11-.38l-.39-.09a0,0,0,0,1,0,0c-.27,0-.66-.06-.89-.06H462.55a5.36,5.36,0,0,1-5.29-5.29v-.45c-.08-7.69,0-15.38,0-23.07V368.92c0-.33,0-.64,0-1h0a3.07,3.07,0,0,0-.05-.34c-.08-.33-.18-.66-.27-1a.82.82,0,0,1-.23-.53c-.13-.24-.26-.48-.41-.72s-.27-.31-.39-.49v0l-.65-.65-.12-.12c-.3-.19-.6-.39-.92-.57a6.12,6.12,0,0,1-.65-.29c-.28-.09-.56-.17-.85-.24l-.2,0c-.23,0-.82-.07-.94-.07-1.85,0-3.7,0-5.55,0h-2c-.15,0-.75.06-.93.06h0l-.37.08c-.32.09-.63.23-.95.31h0l-.22.1c-.36.19-.68.42-1,.63l0,0-.26.23c-.25.24-.47.56-.74.77l-.1.15c-.25.37-.43.79-.66,1.17h0l-.08.21c-.08.25-.14.5-.2.75l-.09.39s0,.06,0,.09v0c.06,6.71,0,13.42,0,20.12v19.93a5.36,5.36,0,0,1-5.29,5.29h-1.08c-1.83,0-3.67,0-5.5,0-5.65,0-11.29,0-16.94,0H394l-1,0-.28.05c-.33.07-.66.18-1,.27a.82.82,0,0,1-.53.23c-.24.13-.48.26-.72.41-.09.06-.32.28-.5.39a0,0,0,0,1,0,0l-.65.64-.12.12c-.19.31-.4.61-.57.92-.05.08-.19.49-.29.66s-.18.56-.25.85c0,.06,0,.11,0,.17a9,9,0,0,1-.07,1c0,1.85,0,3.7,0,5.55,0,.66,0,1.32,0,2,0,.15.07.76.07.93h0c0,.16.07.3.08.37.08.32.23.63.31,1,0,0,0,0,0,0s.07.16.1.23c.19.36.43.69.65,1l.23.27c.24.26.57.48.79.74l.13.1c.37.24.78.41,1.15.64h0l.22.08a11.24,11.24,0,0,0,1.14.3H393c6.7-.06,13.42,0,20.12,0H433a5.36,5.36,0,0,1,5.29,5.29v.46c.08,7.68,0,15.37,0,23.06v8.64h.13v4.16c0,.45,0,.9-.06,1.34a2.74,2.74,0,0,1,0,.5,1.66,1.66,0,0,1,0,.32v.53c0,.33,0,.64,0,1h0c0,.12,0,.24.05.34.08.33.18.65.27,1-.05,0-.06,0,.08.25l0,.05a.87.87,0,0,1-.06-.15c0-.05,0-.09,0-.14a.89.89,0,0,1,.22.52c.14.25.26.49.41.72s.29.34.4.51.43.44.65.66l.07.08.05,0,.49.31.42.26c.08,0,.47.18.65.29s.57.17.86.24l.19,0c.23,0,.83.07.95.07,1.85,0,3.7,0,5.55,0,.66,0,1.32,0,2,0,.16,0,.76-.06.94-.06h0l.36-.08c.32-.09.65-.24,1-.32h0l.22-.1a6.26,6.26,0,0,0,.55-.34l.49-.31.26-.23c.25-.24.47-.56.74-.77l.1-.15c.24-.37.42-.78.65-1.16v0l.08-.22a11,11,0,0,0,.29-1.13s0-.07,0-.1v0c0-.46,0-.93,0-1.39v-.5a4.17,4.17,0,0,1,0-.5c0-1.83,0-3.67,0-5.5,0-4.07,0-8.16,0-12.23V437.47a5.37,5.37,0,0,1,5.29-5.29h39.78a11.56,11.56,0,0,1,1.2-.22l.31-.1h0s0,0,0,0a.58.58,0,0,1,.33-.19c.3-.15.67-.3.77-.36l.28-.17h0a1.08,1.08,0,0,1,.19-.2V414.49Z"/></clipPath><linearGradient id="b" x1="-2.35" y1="270.64" x2="542.35" y2="270.64" gradientUnits="userSpaceOnUse"><stop offset="0" stop-color="#6667ab"/><stop offset="0.09" stop-color="#3d86ca"/><stop offset="0.18" stop-color="#00a4da"/><stop offset="0.27" stop-color="#00c0dc"/><stop offset="0.36" stop-color="#00d9d2"/><stop offset="0.45" stop-color="#17e6c4"/><stop offset="0.54" stop-color="#4cf2af"/><stop offset="0.63" stop-color="#7cfb94"/><stop offset="0.72" stop-color="#92fe7c"/><stop offset="0.81" stop-color="#aaff61"/><stop offset="0.9" stop-color="#c6ff40"/><stop offset="0.99" stop-color="#e3ff00"/></linearGradient></defs><g class="b"><rect class="c" x="-2.35" y="-1.71" width="544.7" height="544.7"/></g></svg>