<svg width="16" height="16" viewBox="0 0 16 16" fill="none" xmlns="http://www.w3.org/2000/svg">
<path fill-rule="evenodd" clip-rule="evenodd" d="M3 2C2.44772 2 2 2.44772 2 3V13C2 13.5523 2.44772 14 3 14H13C13.5523 14 14 13.5523 14 13V3C14 2.44772 13.5523 2 13 2H3ZM12 3.66667C12 4.56297 11.4273 5.05277 10.6667 5.5595C10.2477 5.28033 9.88567 5.00633 9.64503 4.66667H11C11.1841 4.66667 11.3333 4.51743 11.3333 4.33333C11.3333 4.14923 11.1841 4 11 4H9.36213C9.34323 3.89527 9.33333 3.78447 9.33333 3.66667H8.66667C8.66667 4.80367 9.35913 5.46047 10.0625 5.95503C9.78557 6.1409 9.5104 6.34253 9.2832 6.57353C8.92603 6.93667 8.66667 7.39137 8.66667 8C8.66667 8.60863 8.92603 9.06333 9.2832 9.42647C9.5104 9.65747 9.78557 9.8591 10.0625 10.045C9.35913 10.5395 8.66667 11.1963 8.66667 12.3333H9.33333C9.33333 11.437 9.90603 10.9473 10.6667 10.4405C11.0857 10.7197 11.4477 10.9937 11.6883 11.3333H10.3333C10.1492 11.3333 10 11.4826 10 11.6667C10 11.8508 10.1492 12 10.3333 12H11.9712C11.9901 12.1047 12 12.2155 12 12.3333H12.6667C12.6667 11.1963 11.9742 10.5395 11.2708 10.045C11.5478 9.8591 11.8229 9.65747 12.0501 9.42647C12.4073 9.06333 12.6667 8.60863 12.6667 8C12.6667 7.39137 12.4073 6.93667 12.0501 6.57353C11.8229 6.34253 11.5478 6.1409 11.2708 5.95503C11.9742 5.46047 12.6667 4.80367 12.6667 3.66667H12ZM9.79983 7C10.0345 6.77267 10.3319 6.57343 10.6667 6.35573C11.0014 6.57343 11.2988 6.77267 11.5335 7H9.79983ZM9.3759 7.66667C9.34797 7.77023 9.33333 7.88063 9.33333 8C9.33333 8.11937 9.34797 8.22977 9.3759 8.33333H11.9574C11.9854 8.22977 12 8.11937 12 8C12 7.88063 11.9854 7.77023 11.9574 7.66667H9.3759ZM10.6667 9.64427C10.3319 9.42657 10.0345 9.22733 9.79983 9H11.5335C11.2988 9.22733 11.0014 9.42657 10.6667 9.64427ZM4.33333 5.66667C4.33333 5.48257 4.48257 5.33333 4.66667 5.33333H7C7.1841 5.33333 7.33333 5.48257 7.33333 5.66667V6.33333C7.33333 6.51743 7.1841 6.66667 7 6.66667H6.66667V8.01587L8.07703 10.2993C8.6257 11.1876 7.98673 12.3333 6.94263 12.3333H4.72403C3.67993 12.3333 3.04097 11.1876 3.58963 10.2993L5 8.01587V6.66667H4.66667C4.48257 6.66667 4.33333 6.51743 4.33333 6.33333V5.66667Z" fill="url(#paint0_linear_193_2037)"/>
<defs>
<linearGradient id="paint0_linear_193_2037" x1="8" y1="2" x2="8" y2="14" gradientUnits="userSpaceOnUse">
<stop stop-color="#1CC800" stop-opacity="0.66"/>
<stop offset="1" stop-opacity="0.82"/>
</linearGradient>
</defs>
</svg>
