<svg xmlns="http://www.w3.org/2000/svg" xmlns:xlink="http://www.w3.org/1999/xlink" viewBox="0 0 540 540"><defs><style>.a{fill:none;}.b{clip-path:url(#a);}.c{fill:url(#b);}</style><clipPath id="a"><path class="a" d="M80.57,196.15a.2.2,0,0,1,0,.07,0,0,0,0,0,0,0A0,0,0,0,0,80.57,196.15ZM80.45,175a4.15,4.15,0,0,0,.07-.43l.06-.41s0-.06,0-.08,0-.19,0-.21S80.45,174.88,80.45,175Zm6.21,43.1,0-.11,0,.09c0,.05,0,.1.07.16A1.21,1.21,0,0,0,86.66,218.05Zm15.81,74.28c0-.05,0-.1,0-.15a0,0,0,0,1,0,0s0,.06,0,.09,0,.26,0,.34v-.05A1.36,1.36,0,0,1,102.47,292.33Zm22.21-187,.06,0,.08-.07A.6.6,0,0,0,124.68,105.28Zm-.2.15.13-.09.06-.06Zm46.31,300.66-.14-.1c.19.16.45.36.55.43h0Zm8.83-254.92c-20.31,0-36.77,13.07-36.77,29.19s16.46,29.19,36.77,29.19,36.76-13.07,36.76-29.19S199.92,151.17,179.62,151.17Zm60.79,292.05.24.11h0Zm37.25-292.05c-20.31,0-36.77,13.07-36.77,29.19s16.46,29.19,36.77,29.19,36.76-13.07,36.76-29.19S298,151.17,277.66,151.17Zm30.72,155.54h0ZM373,80.89h0l.06,0Zm3.75,70.28c-20.3,0-36.76,13.07-36.76,29.19s16.46,29.19,36.76,29.19,36.77-13.07,36.77-29.19S397,151.17,376.72,151.17Zm63.49-21.24s0,0,0,0l0,0Zm13.12,22.25a.49.49,0,0,0,0,.11l0,.08.08.17.1.21A5.51,5.51,0,0,0,453.33,152.18ZM459.42,174a2.27,2.27,0,0,0,0,.24.09.09,0,0,1,0,.05.13.13,0,0,0,0,.06l.06.42a.19.19,0,0,0,0,.08C459.51,174.6,459.46,174.19,459.42,174Zm-279.8-22.79c-20.31,0-36.77,13.07-36.77,29.19s16.46,29.19,36.77,29.19,36.76-13.07,36.76-29.19S199.92,151.17,179.62,151.17Zm98,0c-20.31,0-36.77,13.07-36.77,29.19s16.46,29.19,36.77,29.19,36.76-13.07,36.76-29.19S298,151.17,277.66,151.17Zm99.06,0c-20.3,0-36.76,13.07-36.76,29.19s16.46,29.19,36.76,29.19,36.77-13.07,36.77-29.19S397,151.17,376.72,151.17Zm129.43,33.25A132.85,132.85,0,0,0,494,130.47c-7.65-17-18.95-32.39-32-45.62a213.54,213.54,0,0,0-49-36.53,272.84,272.84,0,0,0-61.9-24.51,316.55,316.55,0,0,0-71.81-10.13A324.12,324.12,0,0,0,206.17,20a284.55,284.55,0,0,0-64.79,21.47A227.94,227.94,0,0,0,89.19,75.32a170,170,0,0,0-36.49,43.9,138,138,0,0,0-11.64,26.67c-.1.33-.21.66-.31,1-.25.8-.49,1.61-.72,2.42a135.26,135.26,0,0,0-3.76,17.3c-.06.37-.11.73-.16,1.09a129.9,129.9,0,0,0,.39,37.46c.08.56.17,1.11.27,1.66s.19,1.11.29,1.66l0,.17c0,.07,0,.14,0,.21l0,.14c.12.61.24,1.23.36,1.83a129,129,0,0,0,4.08,15,148.8,148.8,0,0,0,21.53,40.56l.06.09q.6.81,1.23,1.62,2.61,3.45,5.41,6.78A179.25,179.25,0,0,0,87.51,293a175.49,175.49,0,0,0,9.41,39,184.69,184.69,0,0,0,33.44,56.47A220.85,220.85,0,0,0,173,426.11,256.18,256.18,0,0,0,211.8,448a249.93,249.93,0,0,0,25.69,10.19l1.41.46a7.56,7.56,0,0,0,9.22-5.24c1-4.24-1.29-7.77-5.24-9.23-.53-.2-1.07-.4-1.6-.62l-.57-.23-.06,0-.24-.11h0l-.47-.21q-4.55-2-8.94-4.37a137.58,137.58,0,0,1-11.94-7.21c-1-.66-1.94-1.34-2.89-2-.55-.39-1.09-.79-1.63-1.19l-.88-.66h0l0,0,0,0h0l0,0-.09-.07-.1-.07h0l-.07-.06h0l-.77-.62c-.55-.44-1.1-.88-1.64-1.33q-1.65-1.38-3.26-2.82c-2.2-2-4.33-4-6.35-6.2-1-1-2-2.13-2.9-3.22L197,411.46l-.73-.9-.13-.17c-.39-1.11-1.79-2.41-2.47-3.4-.95-1.37-1.86-2.78-2.72-4.21a78.43,78.43,0,0,1-4.42-8.42c-.06-.15-.8-1.61-.21-.48a2.39,2.39,0,0,0,.13.24c-.11-.25-.3-.65-.33-.73-.31-.78-.61-1.56-.9-2.35q-.87-2.42-1.57-4.87a80,80,0,0,1-2-9.31c-.07-.43-.13-.87-.2-1.3a.43.43,0,0,0,0-.05s0-.08,0-.1v0s0-.1,0-.15c-.19-1.6-.34-3.21-.43-4.82a78.69,78.69,0,0,1,.27-12.28c0-.11,0-.21,0-.29v0s0-.06,0-.09c.14-.82.26-1.64.41-2.45.23-1.2.49-2.4.8-3.58.37-1.47.8-2.93,1.29-4.36.17-.49.35-1,.53-1.47.07-.18.45-1.08.54-1.32A312.14,312.14,0,0,0,244,355.08a326.87,326.87,0,0,0,74-2.44q3.1-.45,6.19-1,8.11-1.32,16.14-3.13,8.33-1.85,16.52-4.19c.82,1.44,1.56,2.92,2.25,4.44h0v0a.73.73,0,0,1,0,.12c.13.32.41,1,.45,1.11.15.41.31.83.46,1.26.43,1.24.83,2.49,1.18,3.76.56,2,1,4.09,1.37,6.16.06.4.12.81.19,1.21a2.5,2.5,0,0,1,0-.31,8.6,8.6,0,0,1,.14.92,5,5,0,0,1-.11-.55,2,2,0,0,0,0,.22c.13,1.15.24,2.3.32,3.46a79.52,79.52,0,0,1,0,10.24c-.09,1.38-.22,2.77-.38,4.14,0,.06,0,.12,0,.19l0,.2,0,.21s0,0,0,.07a0,0,0,0,1,0,0s0,.07,0,.1c-.05.32-.09.65-.14,1a83.43,83.43,0,0,1-2,9.52c-.46,1.64-1,3.27-1.53,4.87-.29.83-.6,1.66-.92,2.48-.11.32-.25.64-.37,1a.21.21,0,0,1,0-.08,6.41,6.41,0,0,1-.29.69l.13-.35,0,.05a92.28,92.28,0,0,1-5,9.51c-.86,1.42-1.77,2.82-2.71,4.19-.47.68-.94,1.35-1.43,2l-.58.8c0,.05-.07.09-.09.13l0,0-.13.16a.91.91,0,0,1-.13.16.16.16,0,0,1-.06.08c-2,2.44-4,4.81-6.19,7.08s-4.59,4.58-7,6.72q-1.68,1.47-3.41,2.88l-1.38,1.11-.07.05,0,0-1.05.79A138.91,138.91,0,0,1,315,445q-5.9,3.42-12.1,6.26c-.74.34-1.5.68-2.26,1l-.15.07-.15.06-.14.06-1.78.68c-3.84,1.41-6.87,5.39-5.48,9.66,1.26,3.91,5.46,6.81,9.65,5.48a254.68,254.68,0,0,0,24.92-9.6,271.13,271.13,0,0,0,40.59-22.11,234.59,234.59,0,0,0,45.69-39.06,194.18,194.18,0,0,0,36.45-59.34A186,186,0,0,0,462,284.77c2.34-2.37,4.63-4.8,6.83-7.3a169.51,169.51,0,0,0,12.52-15.89c.79-1.13,1.56-2.27,2.31-3.43h0a137.47,137.47,0,0,0,19.55-46.07,131.19,131.19,0,0,0,2.94-26.72c0-.14,0-.29,0-.44v0C506.16,184.72,506.16,184.57,506.15,184.42ZM50.77,199.74a.2.2,0,0,1,0-.07s0-.07,0,0a0,0,0,0,1,0,0,0,0,0,0,1,0,0ZM53.53,171a2.45,2.45,0,0,1,0-.38c0-.11,0-.22,0-.33C53.6,170.49,53.56,170.72,53.53,171ZM58.8,141l0,.06,0-.06a.08.08,0,0,1,0,0Zm17.55,118h0l0,.06Zm.05-147.95h0ZM312.59,33.86h0ZM228,33.78h.09l-.11,0Zm-128.09,96s0,0,0,0a.86.86,0,0,1-.14.18A.94.94,0,0,1,99.89,129.81ZM78.73,112.14a6.4,6.4,0,0,1,.46-.51C79.05,111.8,78.89,112,78.73,112.14ZM323.26,350.73h0a2,2,0,0,1-.31-.33C323,350.42,323.56,350.93,323.26,350.73ZM459.44,196v0l-.09.59c-.13.85-.27,1.71-.43,2.56-.33,1.85-.73,3.69-1.18,5.51a93.88,93.88,0,0,1-3.07,10c-.3.82-.61,1.64-.94,2.45-.08.2-.17.4-.26.6.17-.48.29-.92-.13.3l.12-.27c-.06.15-.11.3-.16.41l0,.1,0,.07c-.68,1.55-1.41,3.1-2.17,4.62-1.6,3.2-3.37,6.31-5.27,9.34-1,1.53-2,3.05-3,4.54-.53.75-1.06,1.49-1.61,2.23l-.82,1.11a.47.47,0,0,0-.06.09l-.21.28a.24.24,0,0,1-.08.1h0l0,0,0,0a141.55,141.55,0,0,1-15.36,16.46c-2.9,2.65-5.9,5.16-9,7.61l-.13.1-.19.15-1.1.83c-.82.62-1.64,1.22-2.47,1.82q-2.51,1.82-5.08,3.54a196.55,196.55,0,0,1-22.68,13.1c-1.82.9-3.66,1.77-5.5,2.62-1,.47-2,.93-3.05,1.38l-1.55.67-.8.35a1.66,1.66,0,0,1-.24.11l-.06,0h0l-.13.06-.22.1.05,0c-4,1.76-8.11,3.22-12.19,4.65a255.55,255.55,0,0,1-27.95,8.05q-7.19,1.65-14.45,2.9-3.37.58-6.77,1.09l-1.87.27-.53.07h-.46l-.28,0-3.62.44a296.78,296.78,0,0,1-31,2,298.11,298.11,0,0,1-36.83-1.87l-4.44-.54-.31,0-.22,0h-.2l-1.68-.24q-4.73-.69-9.42-1.54c-3.63-.65-7.39-2-11-.62A87,87,0,0,0,200.7,308,63.51,63.51,0,0,0,175,331c-6.41,10.37-9.22,22.71-9.21,34.82a86.48,86.48,0,0,0,13.29,46.29c-1.35-.95-2.7-1.91-4-2.88s-2.38-1.75-3.55-2.64l-.3-.22h0c-.1-.07-.36-.27-.55-.43t0,0l-1.51-1.19q-7.46-5.92-14.39-12.49A197.7,197.7,0,0,1,141,377.83q-1.62-1.89-3.2-3.83c-.53-.65-1-1.31-1.57-2l-.53-.66-.12-.15a.83.83,0,0,0-.08-.12h0l0,0,0,0-.08-.1,0-.07a.76.76,0,0,0-.08-.11q-3.1-4.1-6-8.35a172.51,172.51,0,0,1-11-18.72q-1.23-2.43-2.38-4.9c-.38-.83-.76-1.67-1.13-2.51l-.56-1.26-.38-.83a.54.54,0,0,1,.07.13A103.33,103.33,0,0,1,110,324a170.86,170.86,0,0,1-7.2-29.58c-.1-.62-.19-1.23-.27-1.85v.05c0-.08,0-.22,0-.34s0-.06,0-.09a0,0,0,0,0,0,0c0-.11,0-.25,0-.41-.15-1.26-.3-2.51-.43-3.77q-.42-4-.64-8.09c-.28-4.91-.35-9.83-.24-14.75s.42-9.67.9-14.49c.11-1,.22-2.11.34-3.16a8.22,8.22,0,0,0-2-6.54s-.1-.14-.18-.23l0-.06a.1.1,0,0,0,0-.05l-.1-.14a0,0,0,0,0,0,0,.16.16,0,0,1-.06-.08l-.71-.94c-.75-1-1.49-2-2.21-3.08a111.74,111.74,0,0,1-7.33-12.16c-1-2-2-4-2.86-6l0,0c0-.06,0-.11-.07-.16l0-.09h0s0,0,0,0l0-.06a1.12,1.12,0,0,0,0-.13l0-.06a.14.14,0,0,0,0-.06l-.36-.91c-.45-1.12-.87-2.25-1.27-3.38a94.45,94.45,0,0,1-3.59-13.21c-.2-1.07-.39-2.14-.56-3.21,0-.19-.05-.37-.08-.56v0a.11.11,0,0,0,0-.05.2.2,0,0,0,0-.07,0,0,0,0,1,0,0c0-.23-.09-.68-.11-.87q-.39-3.42-.52-6.87a88.54,88.54,0,0,1,.22-10.3c.1-1.34.27-2.69.41-4l-.06.41a4.15,4.15,0,0,1-.07.43c0-.07.14-1.13.16-1.13s0,.09,0,.21l.09-.58c.12-.79.25-1.57.4-2.36A92.42,92.42,0,0,1,86,154c.26-.67.58-1.34.81-2-.17.52-.27.81-.3.92.1-.25.44-1.22.59-1.55q1-2.21,2.09-4.38,2-4,4.36-7.79,2.5-4.08,5.33-7.93a11.43,11.43,0,0,0,1.35-1.78s0,0,0,0h0l.4-.5c1-1.28,2.07-2.54,3.13-3.79a144.74,144.74,0,0,1,13.91-14q1.88-1.64,3.78-3.22l1.95-1.58,1-.78.24-.19-.13.09.19-.15h0a.6.6,0,0,1,.14-.11c2.67-2,5.38-4,8.15-5.85A195.39,195.39,0,0,1,151.7,88.17q5.13-2.69,10.39-5.09c1.61-.74,3.24-1.45,4.87-2.15l.15-.07.08,0,1.1-.45,2.9-1.17q11.1-4.4,22.6-7.67c8-2.29,16-4.19,24.15-5.72q6.44-1.22,12.9-2.13l.48-.06.26,0h.15l.16,0,.2,0,.51-.06,2.82-.35c2.22-.26,4.43-.49,6.65-.7a298.5,298.5,0,0,1,53.31-.23q6.38.54,12.72,1.37l.17,0,.3,0,1.83.26,2.78.42q3.22.5,6.44,1.08,12.27,2.2,24.3,5.52,11.55,3.21,22.75,7.49c1.78.68,3.54,1.39,5.29,2.11l.3.12h.05l0,0,.06,0a0,0,0,0,0,0,0l.07,0h0l.05,0,.05,0,.07,0h0l.07,0,.05,0H373l0,0,.29.13c1,.44,2.05.89,3.08,1.35q5,2.27,10,4.78a197.11,197.11,0,0,1,18.93,11q4.51,3,8.85,6.22l.81.61a1.18,1.18,0,0,0,.12.08s0,0,0,0,0,0,0,0l0,0,.08.07,0,0,.11.1h0l.15.12.12.1h0l.05,0h0l.09.07,1,.78c1.37,1.09,2.71,2.21,4,3.35A144.85,144.85,0,0,1,435,123.69q1.56,1.77,3.06,3.58c.49.6,1,1.2,1.46,1.81l.46.57a3,3,0,0,1,.22.28l.05.06,0,0,.12.16q2.75,3.66,5.2,7.51t4.71,8.14c.65,1.24,1.27,2.5,1.87,3.76.28.6.56,1.2.83,1.8.14.33.28.64.42,1a.49.49,0,0,1,0-.11,5.51,5.51,0,0,1,.25.57l-.1-.21-.08-.17a99.23,99.23,0,0,1,5.2,17c.28,1.42.54,2.84.75,4.27,0,.18.06.36.08.54a2.27,2.27,0,0,1,0-.24c0,.23.09.64.11.85a.19.19,0,0,1,0-.08l-.06-.42c.07.7.16,1.4.23,2.1.29,2.9.42,5.82.43,8.73A98.83,98.83,0,0,1,459.44,196Zm4.16-84.9h0s0,0,0,0l-.05-.05S463.59,111.1,463.6,111.12Zm0,0h0s0,0,0,0A0,0,0,0,1,463.62,111.16Zm18.81,147.28,1-3.78c0,.67.09,1.33.12,2C483.2,257.26,482.82,257.85,482.43,258.44Zm6.78-88h0a.77.77,0,0,0,0-.15c0-.05,0-.09,0-.12a.06.06,0,0,1,0,0c0,.13,0,.22,0,.29S489.22,170.49,489.21,170.47Z"/></clipPath><linearGradient id="b" x1="-3.4" y1="276.02" x2="543.4" y2="276.02" gradientUnits="userSpaceOnUse"><stop offset="0" stop-color="#6667ab"/><stop offset="0.09" stop-color="#3d86ca"/><stop offset="0.18" stop-color="#00a4da"/><stop offset="0.27" stop-color="#00c0dc"/><stop offset="0.36" stop-color="#00d9d2"/><stop offset="0.45" stop-color="#17e6c4"/><stop offset="0.54" stop-color="#4cf2af"/><stop offset="0.63" stop-color="#7cfb94"/><stop offset="0.72" stop-color="#92fe7c"/><stop offset="0.81" stop-color="#aaff61"/><stop offset="0.9" stop-color="#c6ff40"/><stop offset="0.99" stop-color="#e3ff00"/></linearGradient></defs><g class="b"><rect class="c" x="-3.4" y="2.62" width="546.8" height="546.8"/></g></svg>