<svg xmlns="http://www.w3.org/2000/svg" xmlns:xlink="http://www.w3.org/1999/xlink" viewBox="0 0 540 540"><defs><style>.a{fill:none;}.b{clip-path:url(#a);}.c{fill:url(#b);}</style><clipPath id="a"><path class="a" d="M291.4,159.49,153.68,398A10.72,10.72,0,0,1,139,402L75.36,365.19a10.73,10.73,0,0,1-3.93-14.65L209.15,112a10.73,10.73,0,0,1,14.65-3.93l63.68,36.77A10.71,10.71,0,0,1,291.4,159.49ZM69,368.87v80.84l70-40.42ZM325.5,89.09c-.11.22-.23.43-.35.65q-1.61,2.76-3.2,5.54l-13.81,23.91q-4.32,7.49-8.65,15a11.37,11.37,0,0,1-15.32,4q-3.29-1.91-6.58-3.8L249.13,118l-18-10.4a11.38,11.38,0,0,1-4-15.32l.21-.37c4-7,8.08-14,12.12-21l12.84-22.25c4.06-7,10.41-12.59,18.64-13.69a18.63,18.63,0,0,1,12,2.36l2.95,1.7,25.88,15c2.58,1.48,5.17,2.94,7.73,4.46a19.07,19.07,0,0,1,8.79,11.73A26.71,26.71,0,0,1,325.5,89.09ZM305.81,78.43c.13-.22.25-.45.37-.68a9.32,9.32,0,0,0,.3-1c-.84-.47-1.69-.93-2.51-1.4L283.65,63.59l-8.9-5.14c-.49-.28-1-.58-1.47-.88a7.82,7.82,0,0,0-.69.72c-1.21,1.8-2.22,3.76-3.29,5.63Q262.34,76,255.37,88l-3.31,5.74,25.4,14.67,8.27,4.77,11.43-19.81Q301.5,85.93,305.81,78.43ZM120.12,219.62l10.31,6,47.12-81.87,5.37,3.1L206.2,106l-15.63-9.4ZM69.55,478.76h398.6c5.38,0,10.77.07,16.15,0H485c5.23,0,10.24-4.59,10-10a10.18,10.18,0,0,0-10-10H86.42c-5.39,0-10.78-.06-16.16,0h-.71c-5.23,0-10.24,4.6-10,10a10.18,10.18,0,0,0,10,10Z"/></clipPath><linearGradient id="b" x1="-2.35" y1="270.64" x2="542.35" y2="270.64" gradientUnits="userSpaceOnUse"><stop offset="0" stop-color="#6667ab"/><stop offset="0.09" stop-color="#3d86ca"/><stop offset="0.18" stop-color="#00a4da"/><stop offset="0.27" stop-color="#00c0dc"/><stop offset="0.36" stop-color="#00d9d2"/><stop offset="0.45" stop-color="#17e6c4"/><stop offset="0.54" stop-color="#4cf2af"/><stop offset="0.63" stop-color="#7cfb94"/><stop offset="0.72" stop-color="#92fe7c"/><stop offset="0.81" stop-color="#aaff61"/><stop offset="0.9" stop-color="#c6ff40"/><stop offset="0.99" stop-color="#e3ff00"/></linearGradient></defs><g class="b"><rect class="c" x="-2.35" y="-1.71" width="544.7" height="544.7"/></g></svg>