<svg xmlns="http://www.w3.org/2000/svg" xmlns:xlink="http://www.w3.org/1999/xlink" viewBox="0 0 540 540"><defs><style>.a{fill:none;}.b{clip-path:url(#a);}.c{fill:url(#b);}</style><clipPath id="a"><path class="a" d="M192.91,220.85c-7.82-5.31-15.67-10.76-23.95-15.34.9.51,1.8,1,2.69,1.56s1.55.94,2.32,1.43a2.51,2.51,0,0,1,.57.28q9.53,6,18.83,12.39Zm32.26-8.06a3.07,3.07,0,0,1-.36-.2h0c-.74-.28-1.47-.57-2.21-.87,1.07.44,2.13.9,3.18,1.35Zm54.22,35.1c-.09-.14-.19-.27-.29-.41.24.33.47.67.69,1Zm2.13,3.32c-.09-.15-.18-.31-.28-.46.15.24.29.48.43.73Zm3.06,6a53.93,53.93,0,0,0-2.49-5,56.21,56.21,0,0,1,5.18,13.11A56.28,56.28,0,0,0,284.58,257.22Zm3.53,40.93h0l0,0a92.19,92.19,0,0,0,1.14-10.93A90.83,90.83,0,0,1,288.11,298.15Zm.78-24.23q0-.39-.09-.78a3.14,3.14,0,0,1,0-.35.21.21,0,0,0,0-.06v0s0,0,0-.06a.6.6,0,0,1,0-.08c0-.15-.05-.33-.06-.36l-.12-.78q-.12-.78-.27-1.56c0-.23-.09-.47-.14-.7q.51,2.64.8,5.28C288.93,274.26,288.91,274.09,288.89,273.92Zm.18,1.73c0-.41-.07-.81-.13-1.21.06.58.12,1.17.17,1.75C289.1,276,289.09,275.83,289.07,275.65Zm5.08,30.66h0l0,.19h0a1.42,1.42,0,0,0,0-.2ZM158.94,200.52l-.48-.2,1.08.47Zm34,20.33c-7.82-5.31-15.67-10.76-23.95-15.34.91.5,1.8,1,2.69,1.56s1.55.94,2.32,1.43a2.51,2.51,0,0,1,.57.28q9.53,6,18.83,12.39Zm32.26-8.06a3.07,3.07,0,0,1-.36-.2h0c-.74-.28-1.47-.57-2.21-.87,1.07.44,2.13.9,3.18,1.35Zm54.22,35.1c-.09-.14-.19-.27-.29-.41.24.33.47.67.69,1Zm2.13,3.32c-.09-.15-.18-.31-.28-.46.15.24.29.48.43.73Zm3.06,6a53.93,53.93,0,0,0-2.49-5,56.21,56.21,0,0,1,5.18,13.11A56.28,56.28,0,0,0,284.58,257.22Zm3.53,40.93h0l0,0a92.19,92.19,0,0,0,1.14-10.93A90.83,90.83,0,0,1,288.11,298.15Zm.78-24.23q0-.39-.09-.78a3.14,3.14,0,0,1,0-.35.21.21,0,0,0,0-.06v0s0,0,0-.06a.6.6,0,0,1,0-.08c0-.15-.05-.33-.06-.36l-.12-.78q-.12-.78-.27-1.56c0-.23-.09-.47-.14-.7q.51,2.64.8,5.28C288.93,274.26,288.91,274.09,288.89,273.92Zm.18,1.73c0-.41-.07-.81-.13-1.21.06.58.12,1.17.17,1.75C289.1,276,289.09,275.83,289.07,275.65Zm5.08,30.66h0l0,.19h0a1.42,1.42,0,0,0,0-.2ZM158.94,200.52l-.48-.2,1.08.47Zm130.13,75.13c0-.41-.07-.81-.13-1.21.06.58.12,1.17.17,1.75C289.1,276,289.09,275.83,289.07,275.65Zm-.18-1.73q0-.39-.09-.78a3.14,3.14,0,0,1,0-.35.21.21,0,0,0,0-.06v0s0,0,0-.06a.6.6,0,0,1,0-.08c0-.15-.05-.33-.06-.36l-.12-.78q-.12-.78-.27-1.56c0-.23-.09-.47-.14-.7q.51,2.64.8,5.28C288.93,274.26,288.91,274.09,288.89,273.92Zm-96-53.07c-7.82-5.31-15.67-10.76-23.95-15.34.91.5,1.8,1,2.69,1.56s1.55.94,2.32,1.43a2.51,2.51,0,0,1,.57.28q9.53,6,18.83,12.39Zm95.2,77.3h0l0,0a92.19,92.19,0,0,0,1.14-10.93A90.83,90.83,0,0,1,288.11,298.15Zm-3.53-40.93a53.93,53.93,0,0,0-2.49-5,56.21,56.21,0,0,1,5.18,13.11A56.28,56.28,0,0,0,284.58,257.22Zm-3.06-6c-.09-.15-.18-.31-.28-.46.15.24.29.48.43.73Zm-2.13-3.32c-.09-.14-.19-.27-.29-.41.24.33.47.67.69,1ZM158.94,200.52l-.48-.2,1.08.47Zm130.13,75.13c0-.41-.07-.81-.13-1.21.06.58.12,1.17.17,1.75C289.1,276,289.09,275.83,289.07,275.65Zm-.18-1.73q0-.39-.09-.78a3.14,3.14,0,0,1,0-.35.21.21,0,0,0,0-.06v0s0,0,0-.06a.6.6,0,0,1,0-.08c0-.15-.05-.33-.06-.36l-.12-.78q-.12-.78-.27-1.56c0-.23-.09-.47-.14-.7q.51,2.64.8,5.28C288.93,274.26,288.91,274.09,288.89,273.92Zm-96-53.07c-7.82-5.31-15.67-10.76-23.95-15.34.91.5,1.8,1,2.69,1.56s1.55.94,2.32,1.43a2.51,2.51,0,0,1,.57.28q9.53,6,18.83,12.39Zm95.2,77.3h0l0,0a92.19,92.19,0,0,0,1.14-10.93A90.83,90.83,0,0,1,288.11,298.15Zm-3.53-40.93a53.93,53.93,0,0,0-2.49-5,56.21,56.21,0,0,1,5.18,13.11A56.28,56.28,0,0,0,284.58,257.22Zm-3.06-6c-.09-.15-.18-.31-.28-.46.15.24.29.48.43.73Zm-2.13-3.32c-.09-.14-.19-.27-.29-.41.24.33.47.67.69,1ZM158.94,200.52l-.48-.2,1.08.47Zm130.13,75.13c0-.41-.07-.81-.13-1.21.06.58.12,1.17.17,1.75C289.1,276,289.09,275.83,289.07,275.65Zm-.18-1.73q0-.39-.09-.78a3.14,3.14,0,0,1,0-.35.21.21,0,0,0,0-.06v0s0,0,0-.06a.6.6,0,0,1,0-.08c0-.15-.05-.33-.06-.36l-.12-.78q-.12-.78-.27-1.56c0-.23-.09-.47-.14-.7q.51,2.64.8,5.28C288.93,274.26,288.91,274.09,288.89,273.92Zm-96-53.07c-7.82-5.31-15.67-10.76-23.95-15.34.91.5,1.8,1,2.69,1.56s1.55.94,2.32,1.43a2.51,2.51,0,0,1,.57.28q9.53,6,18.83,12.39Zm95.2,77.3h0l0,0a92.19,92.19,0,0,0,1.14-10.93A90.83,90.83,0,0,1,288.11,298.15Zm-3.53-40.93a53.93,53.93,0,0,0-2.49-5,56.21,56.21,0,0,1,5.18,13.11A56.28,56.28,0,0,0,284.58,257.22Zm-3.06-6c-.09-.15-.18-.31-.28-.46.15.24.29.48.43.73Zm-2.13-3.32c-.09-.14-.19-.27-.29-.41.24.33.47.67.69,1ZM158.94,200.52l-.48-.2,1.08.47Zm34,20.33c-7.82-5.31-15.67-10.76-23.95-15.34.9.51,1.8,1,2.69,1.56s1.55.94,2.32,1.43a2.51,2.51,0,0,1,.57.28q9.53,6,18.83,12.39Zm32.26-8.06a3.07,3.07,0,0,1-.36-.2h0c-.74-.28-1.47-.57-2.21-.87,1.07.44,2.13.9,3.18,1.35Zm54.22,35.1c-.09-.14-.19-.27-.29-.41.24.33.47.67.69,1Zm2.13,3.32c-.09-.15-.18-.31-.28-.46.15.24.29.48.43.73Zm3.06,6a53.93,53.93,0,0,0-2.49-5,56.21,56.21,0,0,1,5.18,13.11A56.28,56.28,0,0,0,284.58,257.22Zm3.53,40.93h0l0,0a92.19,92.19,0,0,0,1.14-10.93A90.83,90.83,0,0,1,288.11,298.15Zm.78-24.23q0-.39-.09-.78a3.14,3.14,0,0,1,0-.35.21.21,0,0,0,0-.06v0s0,0,0-.06a.6.6,0,0,1,0-.08c0-.15-.05-.33-.06-.36l-.12-.78q-.12-.78-.27-1.56c0-.23-.09-.47-.14-.7q.51,2.64.8,5.28C288.93,274.26,288.91,274.09,288.89,273.92Zm.18,1.73c0-.41-.07-.81-.13-1.21.06.58.12,1.17.17,1.75C289.1,276,289.09,275.83,289.07,275.65Zm5.08,30.66h0l0,.19h0a1.42,1.42,0,0,0,0-.2ZM213,200.1q3.74,1.29,7.42,2.71Q216.74,201.37,213,200.1Zm-6.13-2h0l.6.18Zm-47.94,2.43-.48-.2,1.08.47Zm-11.19,3.61h-.08l.19.07Zm-1-.29.13,0h0Zm-.89-.29c-.89-.29-1.78-.55-2.67-.8l2.92.89Zm-24.79-5-.72-.06,1.53.14Zm-10.49-6.67a3.41,3.41,0,0,0-1,2.5,4.52,4.52,0,0,0,.1.75A4.65,4.65,0,0,1,110.54,191.84Zm48.4,8.68-.48-.2,1.08.47Zm120.45,47.37c-.09-.14-.19-.27-.29-.41.24.33.47.67.69,1Zm2.13,3.32c-.09-.15-.18-.31-.28-.46.15.24.29.48.43.73Zm3.06,6a53.93,53.93,0,0,0-2.49-5,56.21,56.21,0,0,1,5.18,13.11A56.28,56.28,0,0,0,284.58,257.22Zm-91.67-36.37c-7.82-5.31-15.67-10.76-23.95-15.34.91.5,1.8,1,2.69,1.56s1.55.94,2.32,1.43a2.51,2.51,0,0,1,.57.28q9.53,6,18.83,12.39Zm95.2,77.3h0l0,0a92.19,92.19,0,0,0,1.14-10.93A90.83,90.83,0,0,1,288.11,298.15Zm.78-24.23q0-.39-.09-.78a3.14,3.14,0,0,1,0-.35.21.21,0,0,0,0-.06v0s0,0,0-.06a.6.6,0,0,1,0-.08c0-.15-.05-.33-.06-.36l-.12-.78q-.12-.78-.27-1.56c0-.23-.09-.47-.14-.7q.51,2.64.8,5.28C288.93,274.26,288.91,274.09,288.89,273.92Zm.18,1.73c0-.41-.07-.81-.13-1.21.06.58.12,1.17.17,1.75C289.1,276,289.09,275.83,289.07,275.65ZM158.94,200.52l-.48-.2,1.08.47Zm120.45,47.37c-.09-.14-.19-.27-.29-.41.24.33.47.67.69,1Zm2.13,3.32c-.09-.15-.18-.31-.28-.46.15.24.29.48.43.73Zm3.06,6a53.93,53.93,0,0,0-2.49-5,56.21,56.21,0,0,1,5.18,13.11A56.28,56.28,0,0,0,284.58,257.22Zm-91.67-36.37c-7.82-5.31-15.67-10.76-23.95-15.34.91.5,1.8,1,2.69,1.56s1.55.94,2.32,1.43a2.51,2.51,0,0,1,.57.28q9.53,6,18.83,12.39Zm95.2,77.3h0l0,0a92.19,92.19,0,0,0,1.14-10.93A90.83,90.83,0,0,1,288.11,298.15Zm.78-24.23q0-.39-.09-.78a3.14,3.14,0,0,1,0-.35.21.21,0,0,0,0-.06v0s0,0,0-.06a.6.6,0,0,1,0-.08c0-.15-.05-.33-.06-.36l-.12-.78q-.12-.78-.27-1.56c0-.23-.09-.47-.14-.7q.51,2.64.8,5.28C288.93,274.26,288.91,274.09,288.89,273.92Zm.18,1.73c0-.41-.07-.81-.13-1.21.06.58.12,1.17.17,1.75C289.1,276,289.09,275.83,289.07,275.65ZM158.94,200.52l-.48-.2,1.08.47Zm120.45,47.37c-.09-.14-.19-.27-.29-.41.24.33.47.67.69,1Zm2.13,3.32c-.09-.15-.18-.31-.28-.46.15.24.29.48.43.73Zm3.06,6a53.93,53.93,0,0,0-2.49-5,56.21,56.21,0,0,1,5.18,13.11A56.28,56.28,0,0,0,284.58,257.22Zm-91.67-36.37c-7.82-5.31-15.67-10.76-23.95-15.34.91.5,1.8,1,2.69,1.56s1.55.94,2.32,1.43a2.51,2.51,0,0,1,.57.28q9.53,6,18.83,12.39Zm95.2,77.3h0l0,0a92.19,92.19,0,0,0,1.14-10.93A90.83,90.83,0,0,1,288.11,298.15Zm.78-24.23q0-.39-.09-.78a3.14,3.14,0,0,1,0-.35.21.21,0,0,0,0-.06v0s0,0,0-.06a.6.6,0,0,1,0-.08c0-.15-.05-.33-.06-.36l-.12-.78q-.12-.78-.27-1.56c0-.23-.09-.47-.14-.7q.51,2.64.8,5.28C288.93,274.26,288.91,274.09,288.89,273.92Zm.18,1.73c0-.41-.07-.81-.13-1.21.06.58.12,1.17.17,1.75C289.1,276,289.09,275.83,289.07,275.65ZM158.94,200.52l-.48-.2,1.08.47Zm34,20.33c-7.82-5.31-15.67-10.76-23.95-15.34.91.5,1.8,1,2.69,1.56s1.55.94,2.32,1.43a2.51,2.51,0,0,1,.57.28q9.53,6,18.83,12.39Zm32.26-8.06a3.07,3.07,0,0,1-.36-.2h0c-.74-.28-1.47-.57-2.21-.87,1.07.44,2.13.9,3.18,1.35Zm54.22,35.1c-.09-.14-.19-.27-.29-.41.24.33.47.67.69,1Zm2.13,3.32c-.09-.15-.18-.31-.28-.46.15.24.29.48.43.73Zm3.06,6a53.93,53.93,0,0,0-2.49-5,56.21,56.21,0,0,1,5.18,13.11A56.28,56.28,0,0,0,284.58,257.22Zm3.53,40.93h0l0,0a92.19,92.19,0,0,0,1.14-10.93A90.83,90.83,0,0,1,288.11,298.15Zm.78-24.23q0-.39-.09-.78a3.14,3.14,0,0,1,0-.35.21.21,0,0,0,0-.06v0s0,0,0-.06a.6.6,0,0,1,0-.08c0-.15-.05-.33-.06-.36l-.12-.78q-.12-.78-.27-1.56c0-.23-.09-.47-.14-.7q.51,2.64.8,5.28C288.93,274.26,288.91,274.09,288.89,273.92Zm.18,1.73c0-.41-.07-.81-.13-1.21.06.58.12,1.17.17,1.75C289.1,276,289.09,275.83,289.07,275.65Zm5.08,30.66h0l0,.19h0a1.42,1.42,0,0,0,0-.2Zm-166.29-107h0ZM404.34,445.67l.51.85.13.18C404.76,446.36,404.55,446,404.34,445.67Zm7,10.31c-.26-.41-.54-.82-.82-1.23.51.76,1,1.52,1.48,2.28C411.78,456.68,411.55,456.33,411.33,456Zm6.77,11.33-.7-1.23c.24.43.48.87.73,1.3A.21.21,0,0,0,418.1,467.31Zm18,49.17s0,0,0,0l-.16.21a1.3,1.3,0,0,0,.26-.31A.6.6,0,0,0,436.1,516.48Zm-7.39-116.7c.24.74.47,1.48.7,2.22v0C429.18,401.23,429,400.5,428.71,399.78Zm.1,34.18V434A.18.18,0,0,1,428.81,434Zm0-.1v0s0,0,0,0v0A.06.06,0,0,1,428.8,433.86Zm-8.16-34.64c-.16-.48-.33-1-.51-1.43.25.68.49,1.37.72,2.06ZM294.15,306.31h0l0,.19h0a1.42,1.42,0,0,0,0-.2Zm7.36,6.71h0l1.46-.11Zm2.16-.15-.7.05,1.46-.09Zm41.6,5.12c-1.39-.45-2.79-.88-4.19-1.27a101.45,101.45,0,0,1,10.25,3.51l.48.19c1.26.51,2.51,1.05,3.74,1.62.43.19.87.38,1.29.59l1.47.71c1.1.54,2.2,1.09,3.28,1.67A100.1,100.1,0,0,0,345.27,318Zm56.51,44c1.59,2.35,3.09,4.75,4.69,7.09Q404.22,365.47,401.78,362Zm10.82,2.74-.23-.19.24.22v0Zm-5.65,5h0s0,0,0-.05a.7.7,0,0,1-.14-.16,2.11,2.11,0,0,0,.2.31v0a.24.24,0,0,0,0,.07,6.18,6.18,0,0,0,.4.64C407.25,370.34,407.06,370,407,369.77Zm-22.72-38.24s0,0,0,0c-.23-.21-.46-.4-.7-.6s-.54-.43-.81-.65c.52.43,1,.85,1.54,1.3v0ZM301.51,313h0l1.46-.11Zm2.16-.15-.7.05,1.46-.09Zm41.6,5.12c-1.39-.45-2.79-.88-4.19-1.27a101.45,101.45,0,0,1,10.25,3.51l.48.19c1.26.51,2.51,1.05,3.74,1.62.43.19.87.38,1.29.59l1.47.71c1.1.54,2.2,1.09,3.28,1.67A100.1,100.1,0,0,0,345.27,318Zm39,13.54s0,0,0,0c-.23-.21-.46-.4-.7-.6s-.54-.43-.81-.65c.52.43,1,.85,1.54,1.3v0ZM401.78,362c1.59,2.35,3.09,4.75,4.69,7.09Q404.22,365.47,401.78,362Zm5.17,7.75h0s0,0,0-.05a.7.7,0,0,1-.14-.16,2.11,2.11,0,0,0,.2.31v0a.24.24,0,0,0,0,.07,6.18,6.18,0,0,0,.4.64C407.25,370.34,407.06,370,407,369.77Zm13.69,29.45c-.16-.48-.33-1-.51-1.43.25.68.49,1.37.72,2.06Zm8.16,34.64v0s0,0,0,0v0A.06.06,0,0,1,428.8,433.86Zm0,.1V434A.18.18,0,0,1,428.81,434Zm-19.53-60.1c-.13-.24-.27-.47-.41-.71.34.59.67,1.18,1,1.78C409.68,374.57,409.48,374.22,409.28,373.86Zm2.89,5.37-.25-.47c.26.49.51,1,.76,1.49C412.52,379.91,412.34,379.57,412.17,379.23Zm10.3,4.25c1.18,2.67,2.3,5.38,3.35,8.11C424.79,388.86,423.67,386.15,422.47,383.48Zm6.33,50.38v0h0A.06.06,0,0,1,428.8,433.86Zm.21,1.63c0-.17-.05-.34-.07-.51,0,.27.07.54.1.81ZM427.9,318.78c.42,1.5.8,3,1.15,4.53C428.71,321.8,428.33,320.29,427.9,318.78Zm-88-97.94h0Zm0,0h0Zm15.69,31.54v0h0Zm0,.29s0-.07,0-.11c.05.41.1.83.14,1.24Zm.14,1.27c0-.05,0-.09,0-.14,0,.17,0,.33.05.49Zm7.47,12.74-.46-.05.47.06.43.05Zm.47.06h0Zm.16,0h0l.12,0,2.7.42C365.69,267,364.76,266.88,363.83,266.75Zm18.33,4.5-.58-.2.56.2c.6.21,1.19.43,1.78.66C383.34,271.68,382.75,271.46,382.16,271.25Zm21.54,11.69h0l.05,0Zm.13.11,0,0h0Zm9,82c.07,0,.05,0-.12-.18h0l.06.08h0l-.13-.13a.4.4,0,0,1,0,.13v0l.34.5h0a.44.44,0,0,1,.08.11c.09.12.17.24.25.37l.74,1.24.17.28A19.85,19.85,0,0,0,412.83,365Zm-.51-.94-.62-1.17c.3.57.6,1.14.89,1.71A5.44,5.44,0,0,0,412.32,364.1Zm-12.75-22.62-.13-.2,1,1.71C400.18,342.48,399.88,342,399.57,341.48ZM322.18,206c1.71.6,3.41,1.2,5.11,1.82s3.43,1.26,5.13,1.94l1.41.58C330,208.72,326.11,207.35,322.18,206Zm8.57,11.11h-.11l-.21-.08-.45-.17.71.28h.09ZM217,209.51l4.58,1.81C220.09,210.68,218.57,210.08,217,209.51Zm-43.2-11.32-.58-.1h-.17q.88.12,1.77.27Zm156.92,18.95h-.11l-.21-.08-.45-.17.71.28h.09Zm68.82,124.34-.13-.2,1,1.71C400.18,342.48,399.88,342,399.57,341.48Zm12.75,22.62-.62-1.17c.3.57.6,1.14.89,1.71A5.44,5.44,0,0,0,412.32,364.1ZM339.86,220.83h0Zm15.69,31.54v0h0Zm0,.29s0-.07,0-.11c.05.41.1.83.14,1.24Zm.14,1.27c0-.05,0-.09,0-.14,0,.17,0,.33.05.49Zm7.47,12.74-.46-.05.47.06.43.05Zm.47.06h0Zm.16,0h0l.12,0,2.7.42C365.69,267,364.76,266.88,363.83,266.75Zm18.33,4.5-.58-.2.56.2c.6.21,1.19.43,1.78.66C383.34,271.68,382.75,271.46,382.16,271.25Zm21.54,11.69h0l.05,0Zm.13.11,0,0h0Zm24.07,35.73c.42,1.5.8,3,1.15,4.53C428.71,321.8,428.33,320.29,427.9,318.78Zm-5.8-71.37a10.81,10.81,0,0,0-1.35-1l-.66-.44a24.24,24.24,0,0,1,2.38,1.79Zm-82.24-26.58h0Zm-3.7-9.48a4.62,4.62,0,0,0-.62-.23l0,0,0,0c.53.19,1.07.39,1.6.6C336.87,211.61,336.52,211.48,336.16,211.35Zm-.81-.32.1.06h0Zm74,57.23c1,1.51,2,3,3,4.57C411.38,271.29,410.37,269.76,409.33,268.26Zm6.45,10.24-.29-.52c-.55-1-1.11-1.89-1.69-2.82.95,1.56,1.88,3.14,2.77,4.74C416.31,279.43,416.05,279,415.78,278.5Zm3.31,6.05c-.39-.75-.79-1.5-1.19-2.25.43.8.85,1.61,1.27,2.42A1.3,1.3,0,0,0,419.09,284.55Zm1.5,3c-.06-.12-.12-.25-.19-.37.39.79.78,1.59,1.15,2.39l0,0a.31.31,0,0,1,.09.11C421.34,289,420.91,288.22,420.59,287.55Zm-89.84-70.41h0Zm-.05,0h0Zm0,0h0Zm-69.35-18.93-.46-.08h-.11l2.07.36Zm144.56,40.94a62.69,62.69,0,0,1,8.25,3.48A56.14,56.14,0,0,0,405.89,239.12ZM396,228.58c0-.22-.09-.45-.14-.67.07.32.13.64.19,1C396,228.78,396,228.68,396,228.58Zm-2.17-7.39,0,0,0,.07S393.81,221.21,393.81,221.19Zm-.66-1.43c-.13-.28-.27-.56-.42-.83.2.38.39.76.57,1.15A3.13,3.13,0,0,0,393.15,219.76Zm-1.08-2q-.46-.81-1-1.59a31.75,31.75,0,0,1,1.65,2.81C392.52,218.52,392.3,218.11,392.07,217.71Zm-1.26-2-.18-.24c.16.22.3.45.45.67C391,216,390.9,215.83,390.81,215.69Zm-54.65-4.34a4.62,4.62,0,0,0-.62-.23l0,0,0,0c.53.19,1.07.39,1.6.6C336.87,211.61,336.52,211.48,336.16,211.35Zm-.81-.32.1.06h0Zm55.46,4.66-.18-.24c.16.22.3.45.45.67C391,216,390.9,215.83,390.81,215.69Zm1.26,2q-.46-.81-1-1.59a31.75,31.75,0,0,1,1.65,2.81C392.52,218.52,392.3,218.11,392.07,217.71Zm1.08,2c-.13-.28-.27-.56-.42-.83.2.38.39.76.57,1.15A3.13,3.13,0,0,0,393.15,219.76Zm.66,1.43,0,0,0,.07S393.81,221.21,393.81,221.19Zm2.17,7.39c0-.22-.09-.45-.14-.67.07.32.13.64.19,1C396,228.78,396,228.68,396,228.58Zm9.91,10.54a62.69,62.69,0,0,1,8.25,3.48A56.14,56.14,0,0,0,405.89,239.12Zm3.44,29.14c1,1.51,2,3,3,4.57C411.38,271.29,410.37,269.76,409.33,268.26Zm6.45,10.24-.29-.52c-.55-1-1.11-1.89-1.69-2.82.95,1.56,1.88,3.14,2.77,4.74C416.31,279.43,416.05,279,415.78,278.5Zm3.31,6.05c-.39-.75-.79-1.5-1.19-2.25.43.8.85,1.61,1.27,2.42A1.3,1.3,0,0,0,419.09,284.55Zm3-37.14a10.81,10.81,0,0,0-1.35-1l-.66-.44a24.24,24.24,0,0,1,2.38,1.79Zm-82.78-25.49a37.31,37.31,0,0,0-3.82-2.43,36.85,36.85,0,0,1,8.09,6.16c.64.66,1.27,1.34,1.86,2,.2.24.41.47.6.71A33.18,33.18,0,0,0,339.32,221.92ZM352.52,240l-.12-.31.21.58Zm-12.63-19.13h0Zm0,0h0Zm15.29,29c-.08-.43-.16-.85-.25-1.28q.14.63.24,1.26c0,.15.05.29.08.44C355.2,250.11,355.17,250,355.15,249.83Zm.39,2.49s0,0,0,0v0A0,0,0,0,1,355.54,252.32Zm0,.08a.25.25,0,0,1,0,.08v-.07Zm.49,5.66a.34.34,0,0,0,0-.1c0,.38,0,.76.05,1.14C356.07,258.75,356.05,258.4,356,258.06Zm-.79-38.17q-3.78-2-7.68-3.78a155.82,155.82,0,0,1,15.11,8Q359,221.9,355.25,219.89ZM374.4,232c1.39,1,2.76,2.09,4.11,3.16Q376.49,233.55,374.4,232Zm23.11,21.12q-4.11-4.62-8.6-8.87a156.52,156.52,0,0,1,15,16.66C401.91,258.26,399.75,255.66,397.51,253.14Zm6.49,30c1,.78,1.94,1.57,2.89,2.37C405.94,284.73,405,284,404,283.18Zm7.48,6.5c1,1,1.94,1.94,2.86,3C413.42,291.62,412.47,290.63,411.48,289.68Zm4,4.28a.1.1,0,0,0,0,0l0-.05-.13-.14a2.44,2.44,0,0,0,.39.52C415.62,294.15,415.56,294.05,415.49,294ZM207.16,254.1a89.86,89.86,0,0,0-11.5-17c.51.58,1,1.17,1.5,1.76s.77.93,1.15,1.41l.74.93,0,0,0,0q1.57,2.09,3,4.24A90.14,90.14,0,0,1,207.16,254.1Zm11.43,104.33,0,.21s0-.07,0-.11S218.58,358.46,218.59,358.43Zm.37,20c-.15.71-.29,1.34-.41,1.88l-1.49-1.49Zm.32-83.88c-.07-.52-.15-1-.23-1.57,0,.17,0,.33.08.5Zm.12.83v0l0-.21a.34.34,0,0,0,0-.1.58.58,0,0,0,0,.1.38.38,0,0,0,0,.1S219.4,295.34,219.4,295.36Zm2.7,86.24c-.13.61-.27,1.21-.42,1.81L220.24,382C220.84,381.84,221.46,381.72,222.1,381.6Zm13.15,1.62h0Zm3.89-.47-2.61.31.95-.12ZM256,381.47q-4,.15-8,.44C250.64,381.71,253.31,381.56,256,381.47Zm38.18,2.27c-4.3-.71-8.61-1.25-12.94-1.65,1.32.11,2.63.24,4,.39.88.09,1.76.2,2.64.31l1.1.14.22,0,.9.13C291.4,383.28,292.78,383.5,294.15,383.74Zm2.14.37-2.14-.37q.72.11,1.44.24Zm42.85,14.24a148.49,148.49,0,0,0-23.31-9.49,144.46,144.46,0,0,1,13.83,5C332.72,395.17,335.94,396.69,339.14,398.35Zm10.93,6.23c-.88-.56-1.77-1.11-2.67-1.64.51.29,1,.6,1.52.91Zm7.62-3.91c1.14.77,2.26,1.55,3.38,2.35C360,402.23,358.83,401.44,357.69,400.67Zm0,0q-1.83-1.23-3.69-2.42C355.24,399,356.47,399.85,357.69,400.67ZM395,445.84l-.36-.45c.33.41.66.83,1,1.26Zm-19.1-30.59c-.24-.36-.49-.73-.75-1.09l0,0Zm9.6,14.43c-.33-.52-.66-1-1-1.54s-.78-1.21-1.18-1.81c.34.51.68,1,1,1.53l.2.31C384.85,428.67,385.17,429.17,385.49,429.68Zm16.45,25.73c-1-1.52-2.09-3-3.17-4.52a2.6,2.6,0,0,1-.27-.38l0,0-2.11-3.5q1.31,2.08,2.65,4.12l.13.19c.59.89,1.19,1.78,1.81,2.67Zm8.53-.73c-1.8-2.67-3.76-5.26-5.49-8,1.64,2.26,3.24,4.55,4.78,6.88C410,453.94,410.24,454.31,410.47,454.68ZM411.54,471q-4.08-7.33-8.75-14.32c.93,1.38,1.85,2.78,2.75,4.18.42.66.84,1.32,1.25,2s.93,1.5,1.38,2.26c.61,1,1.2,2,1.78,3,.3.53.61,1.06.9,1.59Zm4.39,8.36c-.49-1-1-2-1.49-2.94C414.94,477.4,415.44,478.38,415.93,479.36Zm-13.14-22.68-.85-1.27a.35.35,0,0,0,.05.08c.19.28.37.56.56.83Zm25.13,52.94c-.12-.41-.24-.81-.37-1.21l.27.86C427.86,509.39,427.89,509.5,427.92,509.62Zm.18-21.52c-.13-.33-.27-.65-.41-1,0-.09-.07-.18-.1-.26C427.76,487.27,427.94,487.68,428.1,488.1ZM113.31,190.59a3.85,3.85,0,0,0-2.75,1.22A3.27,3.27,0,0,1,113.31,190.59ZM128,199.34h-.11l-.58-.08-.89-.14Zm15.12,3.39c-4.91-1.39-9.89-2.31-14.92-3.35l.31.05c1,.15,1.94.32,2.9.5,3.57.66,7.11,1.48,10.59,2.47C142.35,202.5,142.72,202.61,143.09,202.73Zm3.5,1.08-.52-.17.36.11Zm1,.22h-.2l-.51-.15C147.87,204,148.1,204,147.59,204Zm.8-7.5h0Zm.19,7.95-.32-.11-.36-.17C148.18,204.3,148.48,204.43,148.58,204.48ZM162,210.24c-.53-.28-1.07-.55-1.61-.82l1.08.54C161.66,210.05,161.84,210.14,162,210.24Zm5.11-5.74-.89-.46-1.45-.75C165.56,203.68,166.34,204.08,167.12,204.5Zm5.45,12c-1-.72-2.1-1.42-3.17-2.09.46.27.91.55,1.36.84l.17.11c.28.19.56.37.83.57Zm264,299.35a4.87,4.87,0,0,0,.26-.79,4.71,4.71,0,0,0,.09-.52c0-.11,0-.23,0-.34v-.35A3.28,3.28,0,0,1,436.54,515.85ZM361.07,403c-1.12-.79-2.24-1.58-3.38-2.35C358.83,401.44,360,402.22,361.07,403Zm-3.38-2.35q-1.83-1.23-3.69-2.42C355.24,399,356.47,399.85,357.69,400.67Zm-29.8-47.91-.35-.4c1.46,1.69,2.92,3.39,4.36,5.1Q329.91,355.11,327.89,352.76Zm-17-19.12q2.75,3,5.45,6Q313.6,336.61,310.85,333.64Zm5.6,6.13-.15-.16Zm-5.6-6.13q-3.12-3.39-6.3-6.73C306.67,329.13,308.76,331.39,310.85,333.64Zm126.06-8.86V260a2.7,2.7,0,0,0,0-.49v0l0-.18a.64.64,0,0,0,0-.07,1.7,1.7,0,0,0,0-.22,39.84,39.84,0,0,0-2.83-8.09v0a87.25,87.25,0,0,0-37.34-44.08,89,89,0,0,0-10.37-5.1.13.13,0,0,0-.08,0l0,0-.57-.33A101.45,101.45,0,0,0,369.61,194q-3.6-1.26-7.29-2.17a34.15,34.15,0,0,0-6.32-1.25c-.44,0-.88,0-1.32,0H280.12c-6.27,0-12.56-.15-18.83,0H261l-.35,0h0l-.64,0H200c-8.79,0-17.59-.16-26.38,0h-.44c-.77,0-1.55,0-2.32,0H140.27c-8.83,0-17.67-.11-26.51,0h-.45a3.85,3.85,0,0,0-2.75,1.22l0,0a4.65,4.65,0,0,0-.88,3.25h0l0,.24q4,28,6.5,56.2,2.82,31.26,3.93,62.66,1.18,33.92.36,67.86-.8,32.73-3.47,65.38-2.42,29.52-6.37,58.89-.47,3.44-1,6.87c-.31,2.17.92,5,3.62,4.75q29.81-2.7,59.71-4.39,31.77-1.8,63.59-2.45,33.13-.69,66.26-.13,31.86.52,63.69,2.21,29.81,1.56,59.54,4.13c2.36.21,4.71.41,7.06.63a3.3,3.3,0,0,0,2.72-1.19l0,0,.16-.21s0,0,0,0a.6.6,0,0,1,.08-.08l.07-.09.14-.19,0,0a1,1,0,0,0,.12-.23,4.87,4.87,0,0,0,.26-.79,4.71,4.71,0,0,0,.09-.52c0-.11,0-.23,0-.34V338.69C436.91,334.06,437.06,329.4,436.91,324.78ZM172.12,198.09c.31,0,.64,0,.94,0h.19l.58.1,1,.17,1.53.25c.73.11,1.46.23,2.19.37l.87.15,1.31.24.31.06c.45.08.9.16,1.35.26q.38.06.75.15c.75.14,1.5.3,2.25.45l.51.11c.88.18,1.76.37,2.64.58,1.37.3,2.73.62,4.09,1,.66.16,1.33.32,2,.5s1.33.34,2,.52,1.33.35,2,.54l.35.1c.59.15,1.17.32,1.75.49l1.35.39c.91.26,1.81.54,2.72.82l2,.64,2,.64.16,0c1.47.49,2.93,1,4.39,1.51.71.26,1.42.51,2.11.78l1.56.59c1.54.57,3.06,1.17,4.58,1.81l.8.32.18.07c.74.3,1.47.59,2.21.87h0a3.07,3.07,0,0,0,.36.2l.6.27c.62.26,1.23.54,1.84.82l1.65.75c.92.42,1.84.86,2.76,1.3s1.93.93,2.89,1.41q3.45,1.72,6.82,3.57c1.08.58,2.15,1.18,3.22,1.8,6.31,3.59,12.46,7.5,18.52,11.5l1.08.7c.7.46,1.39.91,2.08,1.38l1.8,1.22c.65.45,1.29.91,1.93,1.38l.13.09.66.49.07.05h.06l0,0h0l0,0,.47.37.45.36.43.37c.57.46,1.13.95,1.67,1.45a38.7,38.7,0,0,1,3.32,3.46l.34.41.08.1,0,.05a.19.19,0,0,0,.06.07l0,0s0,0,0,0l0,0v0l0,0a0,0,0,0,0,0,0s0,0,0,0l0,0a0,0,0,0,1,0,0v0a0,0,0,0,1,0,0h0l.14.19c.19.26.38.52.56.79s.2.27.29.41l.4.6c.13.18.25.36.37.55.32.47.62,1,.91,1.44.06.09.12.18.17.27s.19.31.28.46l.15.27c.15.24.29.48.42.74a53.93,53.93,0,0,1,2.49,5,56.28,56.28,0,0,1,2.69,8.11c.18.69.35,1.38.5,2.07s.26,1.18.37,1.76c.05.23.1.47.14.7q.15.78.27,1.56l.12.78s0,.21.06.36a.6.6,0,0,0,0,.08s0,0,0,.06v0a.21.21,0,0,1,0,.06,3.14,3.14,0,0,0,0,.35q.06.39.09.78c0,.17,0,.34.05.52.06.4.1.8.13,1.21,0,.18,0,.36,0,.54.06.65.1,1.29.14,1.94s.08,1.56.1,2.34c0,.47,0,.95,0,1.42v.4q0,.58,0,1.17c0,.39,0,.78,0,1.17v.15c0,.83,0,1.65-.08,2.47a92.19,92.19,0,0,1-1.14,10.93l0,0h0l-1.74-1.68-3.7-3.52c-.88-.83-1.75-1.66-2.64-2.48l-3.35-3.11q-2-1.89-4.09-3.75t-4.32-3.89l-4.16-3.69a.58.58,0,0,0-.15-.13q-1.93-1.71-3.89-3.4c-1.4-1.21-2.79-2.42-4.2-3.61q-6.33-5.4-12.76-10.65c-1.91-1.55-3.83-3.1-5.75-4.63-1.29-1-2.59-2.06-3.89-3.08q-2.24-1.76-4.48-3.5-4.37-3.39-8.79-6.7c-1.11-.84-2.22-1.67-3.34-2.49l-.15-.11q-2.33-1.73-4.66-3.42l-.09-.07q-3.06-2.23-6.14-4.42t-6.26-4.41c-2.05-1.43-4.12-2.85-6.19-4.26q-9.31-6.34-18.83-12.39a2.51,2.51,0,0,0-.57-.28c-.77-.49-1.54-1-2.32-1.43s-1.79-1-2.69-1.56l-.1-.06-.06,0-1.68-.91-.89-.46-1.45-.75q-2.58-1.32-5.24-2.5l-1.08-.47-1.08-.46-1.74-.71,0,0-1.5-.59c-.39-.16-.79-.31-1.18-.45Zm-23.69-1.57h0ZM374.11,506.1q-31.44-1.78-62.92-2.47-33.07-.7-66.17-.18-32.21.51-64.37,2.19-30.14,1.58-60.2,4.17l-2.82.25q3.74-27.12,6.18-54.4,2.88-32.4,3.93-64.92,1.1-34.35.12-68.73-.9-31.85-3.57-63.61-2.46-29.16-6.41-58.16l-.27-2,1,.06,1.32.1.37,0,.72.06.81.08.59,0,1.6.17.52.06,1.84.24,1.58.23H128a0,0,0,0,0,0,0h.14l.31.05c1,.15,1.94.32,2.9.5,3.57.66,7.11,1.48,10.59,2.47.38.1.75.21,1.12.33l.06,0c.89.25,1.78.51,2.67.8l.25.09.36.11.16.06.12,0,.16,0h0c1,.1,1.22.14.71.14h-.2l.21.06.07,0h.08l.11.06h0c.28.1.58.23.68.28l.81.29c.79.28,1.59.57,2.37.87l0,0c.73.28,1.46.56,2.19.86l.19.08c.81.33,1.61.67,2.41,1,.58.26,1.17.52,1.76.81s1.24.58,1.87.89l.18.09,1.08.54c.18.09.36.18.53.28l.42.21c.63.32,1.25.66,1.87,1s1.16.63,1.73,1l.62.35q1,.56,1.92,1.14l.83.51c.46.27.91.55,1.36.84l.17.11c.28.19.56.37.83.57.56.37,1.11.76,1.65,1.15l.62.44c.41.28.81.58,1.21.87l1.14.84.09.07q.45.33.9.69l.06,0a.13.13,0,0,1,.06.05h0l.08.07h0l0,0h0l0,0h0l0,0c.78.6,1.55,1.22,2.35,1.88l.14.11c.47.39,1,.79,1.46,1.22,1,.87,2,1.75,3,2.64l1,.87,1.54,1.42c.92.86,1.82,1.73,2.71,2.62l1.26,1.27,1.24,1.29c.31.33.62.65.92,1s.81.88,1.21,1.33l.3.33c.28.31.55.63.82.94.51.58,1,1.17,1.5,1.76s.77.93,1.15,1.41l.74.93,0,0,0,0q1.57,2.09,3,4.24a90.14,90.14,0,0,1,5,8.54c.07.13.15.26.21.4l.21.4.15.3a3,3,0,0,1,.15.31c.71,1.41,1.38,2.84,2,4.28.17.38.33.77.5,1.15v0h0v0l0,.09.05.12a0,0,0,0,1,0,0l.18.42c.06.16.13.31.19.47s.14.33.2.5c.14.34.28.69.42,1.08.08.19.15.39.23.59a.06.06,0,0,0,0,0c.33.86.65,1.72.95,2.58.06.18.12.36.19.55.23.66.46,1.33.67,2l.09.26c.11.32.21.64.31,1s.11.34.15.51c.25.78.49,1.56.71,2.35,0,.15.1.31.14.46.25.87.49,1.75.72,2.63.32,1.18.62,2.37.9,3.56s.5,2.14.72,3.21c.16.7.3,1.41.44,2.11,0,.13.05.25.07.38.11.56.22,1.11.32,1.66.2,1.12.4,2.23.58,3.35.11.67.22,1.36.32,2,0,.17,0,.33.08.5l.15,1.07,0,.2c0,.09,0,.18,0,.27a.81.81,0,0,0,0,.09.58.58,0,0,0,0,.1.38.38,0,0,0,0,.1s0,0,0,.07v0c0,.11,0,.21,0,.24l.06.45c.2,1.56.38,3.13.54,4.72a1.49,1.49,0,0,0,0,.21c.08.81.16,1.63.23,2.46s.16,2,.23,2.94c0,.07,0,.14,0,.21.06.76.1,1.53.15,2.31a1.62,1.62,0,0,1,0,.22c0,.78.09,1.56.13,2.34s.06,1.37.08,2.06c0,.47,0,.95.05,1.43.05,1.13.07,2.27.09,3.41,0,2,0,3.94,0,5.91,0,.41,0,.82,0,1.23q0,1,0,1.95h0l-.06,2.41q-.21,7.23-.84,14.45l-.21,2.4a.13.13,0,0,1,0,.06q-.36,4.08-.87,8.15l0,.3c-.08.63-.15,1.25-.24,1.88,0,.35-.08.69-.13,1,0,0,0,.05,0,.07v.17l0,.21h0v.09l-.09.58c-.12.93-.26,1.86-.4,2.79-.12.78-.23,1.56-.36,2.34-.18,1.18-.38,2.37-.58,3.55s-.4,2.36-.63,3.54c0,.24-.08.49-.13.73-.14.79-.3,1.57-.45,2.35-.2,1-.41,2.05-.63,3.07-.05.25-.1.49-.16.74-.15.71-.31,1.42-.47,2.13a1.21,1.21,0,0,1-.05.18c0,.23-.1.45-.16.68a3.8,3.8,0,0,0,4.62,4.61l3.72-.75c1.4-.27,2.8-.53,4.2-.77,1.15-.2,2.31-.4,3.47-.58l.38-.06,3.58-.53.72-.1h.15s0,0,0,0h.19l1-.13.95-.12,1.66-.19,2.37-.26.71-.07,1.95-.19,1.57-.14,2.25-.18c2.65-.2,5.32-.35,8-.44,1.31-.05,2.61-.09,3.92-.11s2.58,0,3.87,0c1.78,0,3.57,0,5.36.07l2.06.07c.55,0,1.1,0,1.66.07.86,0,1.72.08,2.58.13s1.43.08,2.15.14c.52,0,1,.07,1.55.12.69,0,1.39.1,2.09.17,1.32.11,2.63.24,4,.39.88.09,1.76.2,2.64.31l1.1.14.22,0,.9.13c1.38.19,2.76.41,4.13.65q.72.11,1.44.24l.7.13,2.14.4c2.83.54,5.66,1.16,8.46,1.86,1.36.34,2.73.69,4.08,1.07.61.16,1.23.34,1.84.52,1,.28,2,.58,3,.9a144.46,144.46,0,0,1,13.83,5c3.06,1.29,6.28,2.81,9.48,4.47.93.47,1.86,1,2.79,1.47s1.84,1,2.75,1.53,1.83,1,2.72,1.59c.51.29,1,.6,1.52.91l1.15.73,0,0c.79.49,1.57,1,2.34,1.51l.92.62c.52.34,1,.7,1.55,1.06.15.09.29.19.43.29a2.48,2.48,0,0,1,.26.19l.69.49c.36.24.72.5,1.07.76.77.54,1.52,1.1,2.28,1.67s1.23.91,1.84,1.39h0l0,0,0,0,.1.08,0,0h0l.22.18.8.63a176.32,176.32,0,0,1,13.88,12c.57.53,1.14,1.08,1.7,1.64q1.83,1.79,3.6,3.62c.64.66,1.28,1.32,1.9,2,3.79,4,7.4,8.24,10.79,12.58l.36.45.62.81.16.2.81,1.07.14.18c.45.59.9,1.19,1.33,1.79l.43.59-2.11-3.5q1.31,2.08,2.65,4.12l.13.19c.59.89,1.19,1.78,1.81,2.67q2.37,3.41,4.58,6.9c.43.66.85,1.32,1.25,2s.93,1.5,1.38,2.26c.61,1,1.2,2,1.78,3,.3.53.61,1.06.9,1.59,1.16,2.05,2.28,4.11,3.34,6.19.08.17.17.33.25.5.52,1,1,1.95,1.49,2.93.3.61.6,1.22.89,1.83s.59,1.22.87,1.83.62,1.32.92,2,.58,1.28.86,1.92a.3.3,0,0,1,0,.08,1.89,1.89,0,0,0,.11.25l0,.09q.57,1.29,1.11,2.58c.38.89.76,1.79,1.12,2.69.51,1.24,1,2.49,1.47,3.74s.95,2.51,1.41,3.78.9,2.53,1.33,3.8c.36,1.06.71,2.12,1,3.19l.21.64c.07.21.13.43.2.64l.27.86c0,.12.07.23.1.35s.08.25.11.38Q401.11,507.63,374.11,506.1Zm-152-124.5c-.13.61-.27,1.21-.42,1.81L220.24,382C220.84,381.84,221.46,381.72,222.1,381.6ZM219,378.41c-.15.71-.29,1.34-.41,1.88l-1.49-1.49Zm75.16-71.9,0-.19h0a1.42,1.42,0,0,1,0,.2Zm81,107.65,0,0,.72,1.07C375.65,414.89,375.4,414.52,375.14,414.16Zm8.17,12.17c.34.51.68,1,1,1.53l.2.31c.33.5.65,1,1,1.51-.33-.52-.66-1-1-1.54S383.71,426.93,383.31,426.33Zm46.1,64.93c-.42-1.06-.86-2.11-1.31-3.16-.13-.33-.27-.65-.41-1,0-.09-.07-.18-.1-.26l0-.06c-.57-1.35-1.16-2.69-1.76-4l-.33-.73c-.56-1.25-1.14-2.49-1.72-3.72-.82-1.7-1.65-3.4-2.51-5.08-.5-1-1-1.92-1.51-2.88-.25-.46-.49-.92-.74-1.37l-.38-.72-.48-.89c-.25-.43-.49-.87-.73-1.3s-.59-1-.89-1.55c-.63-1.1-1.27-2.19-1.92-3.28-.85-1.42-1.72-2.82-2.6-4.22-.48-.76-1-1.52-1.48-2.28a.09.09,0,0,0,0-.07c-1.8-2.67-3.76-5.26-5.49-8l-.13-.18-.51-.85q-1.3-2.16-2.62-4.3L400.26,439q-1.77-2.87-3.57-5.72-1.69-2.68-3.4-5.34c-.68-1.05-1.36-2.1-2.05-3.15-1-1.6-2.08-3.19-3.13-4.78q-2.08-3.17-4.22-6.3l-.37-.55q-2-3-4.11-6l-.23-.33q-2-2.94-4.12-5.87-1.86-2.62-3.76-5.24c-.38-.54-.76-1.07-1.15-1.6l-1.42-1.94-.27-.37q-3.6-4.9-7.27-9.75l-2.22-2.9c-.77-1-1.55-2-2.34-3-1.13-1.45-2.25-2.9-3.39-4.34s-2.41-3-3.62-4.56q-6-7.43-12.1-14.7-4.33-5.13-8.76-10.17-1.93-2.21-3.89-4.4l-1.69-1.89q-1.74-1.94-3.5-3.86c-1.39-1.53-2.8-3-4.2-4.57l-.74-.79q-2-2.19-4.11-4.37-1.49-1.58-3-3.14l-.66-.68-2.6-2.7c-.95-1-1.91-2-2.87-2.93h0l1.46-.1.7-.05.76,0,1.67-.08,1.67-.06,1.39,0c1.17,0,2.33,0,3.5,0l1.66,0,.83,0,.84,0,1.66.07h.16q1.17.06,2.28.15l.9.07q1,.07,2,.18l1.52.17c1.47.17,2.93.38,4.42.61,1,.16,2.08.35,3.13.56.16,0,.32.06.48.09l1.06.21c.69.14,1.39.3,2.1.46.9.2,1.81.42,2.71.66s1.8.47,2.69.73c1.4.39,2.8.82,4.19,1.27a100.1,100.1,0,0,1,16.32,7c.77.41,1.53.83,2.28,1.27s1.19.69,1.78,1.05c.32.17.64.37,1,.57l1.55,1c.49.3,1,.62,1.47.95a.91.91,0,0,0,.16.11c.67.44,1.34.89,2,1.37l.7.5,1.28.92,1.23.92c.15.11.31.23.45.35h0l0,0h0v0l0,0,.43.34.09.07.9.72.17.14c.38.3.77.62,1.14.95.71.58,1.4,1.18,2.09,1.79l.16.14c1.62,1.43,3.19,2.91,4.73,4.43l.77.77c.19.18.37.37.54.55l.39.39.39.39c.12.12.24.24.35.37.45.46.89.93,1.33,1.39.57.61,1.14,1.22,1.7,1.84a133.5,133.5,0,0,1,9.24,11.1c.57.78,1.13,1.58,1.68,2.38a1.88,1.88,0,0,0,.12.18q2.45,3.45,4.69,7.09l.08.12a2,2,0,0,0,.19.31.7.7,0,0,0,.14.16s0,0,0,.05h0c.11.22.3.57.43.81l.14.25c.46.77.91,1.54,1.35,2.32.14.24.28.47.41.71s.4.71.59,1.07.32.57.47.86c.37.66.72,1.32,1.07,2l.51,1,.25.47c.17.34.35.68.51,1,.4.78.78,1.56,1.15,2.33,1.91,4,3.61,7.95,5.15,12.05.22.56.43,1.13.63,1.7s.36,1,.52,1.46.35.95.51,1.43l.21.63c.25.73.5,1.47.73,2.21.3.9.59,1.82.86,2.73.24.75.46,1.5.67,2.25q1.14,3.88,2.09,7.83c.17.67.33,1.35.48,2,.23,1,.45,2,.66,3s.37,1.76.55,2.64c.26,1.29.5,2.58.73,3.87,0,0,0,.05,0,.08.15.84.29,1.68.43,2.52.24,1.45.46,2.89.66,4.34,0,.17,0,.34.08.52v0a.06.06,0,0,0,0,0V434a.18.18,0,0,0,0,.05v0h0a0,0,0,0,1,0,0v0h0s0,0,0,.07c0,.27.07.54.1.82s0,.34.07.51l0,.3c.13,1.09.26,2.17.37,3.26Zm-46.7-161c.27.22.54.42.81.65s.47.39.7.6c0,0,0,0,0,0l0,0v0C383.73,331.12,383.23,330.7,382.71,330.27Zm46.7-5.33V402c-.23-.74-.46-1.48-.7-2.22-.37-1.13-.74-2.25-1.14-3.37-.23-.69-.48-1.38-.73-2.07-.33-.92-.67-1.84-1-2.75-1.05-2.73-2.17-5.44-3.35-8.11-.22-.5-.44-1-.67-1.5s-.35-.78-.54-1.17c-.43-.93-.87-1.86-1.32-2.78-.64-1.32-1.31-2.64-2-3.95-.35-.68-.71-1.35-1.08-2-.46-.85-.93-1.7-1.41-2.54-.39-.69-.79-1.37-1.19-2l-.17-.28-.74-1.24c-.08-.13-.16-.25-.25-.37a.44.44,0,0,0-.08-.11h0l-.34-.5v0a.4.4,0,0,0,0-.13h0l-.24-.22.23.19h0l.07.06a.61.61,0,0,0-.05-.12.2.2,0,0,0,0-.08c-.29-.57-.59-1.14-.89-1.71l-1.13-2.14c-.36-.69-.73-1.37-1.1-2.05s-.74-1.36-1.11-2c-.12-.24-.25-.48-.38-.71l-.11-.2q-1.12-2-2.27-4.06c-.8-1.42-1.61-2.82-2.43-4.23-.08-.12-.15-.25-.23-.38-.81-1.38-1.63-2.77-2.46-4.14l-1-1.71c-.35-.57-.69-1.14-1.05-1.7l-1.17-1.88q-1.17-1.89-2.39-3.75a.25.25,0,0,0,0-.07q-1.14-1.75-2.31-3.51l-.23-.35L390,326.63c-.95-1.38-1.9-2.76-2.87-4.12-1.55-2.2-3.13-4.37-4.74-6.53-.19-.27-.39-.54-.59-.8l-2.31-3q-1.65-2.14-3.35-4.26l-.12-.15c-1.11-1.4-2.24-2.78-3.37-4.15a306.66,306.66,0,0,0-51.28-48.88q-2.11-1.61-4.26-3.16L314,249.36c-.56-.4-1.12-.8-1.69-1.19-1-.68-1.92-1.34-2.88-2l-.25-.17c-1.08-.74-2.17-1.47-3.26-2.2l-1.28-.84c-1.11-.73-2.22-1.46-3.34-2.17-1.32-.85-2.66-1.69-4-2.51l-2.77-1.69-2.79-1.66c-1.26-.75-2.52-1.48-3.79-2.21l-1.38-.79-.53-.3-2.51-1.4-2.5-1.38-.77-.41Q268.36,222,256,216.61l-.42-.18c-1.31-.57-2.63-1.13-4-1.69l-.1,0-.28-.12-3.08-1.27a5.48,5.48,0,0,0-.56-.23l-2.43-1-1.64-.64q-2.76-1.08-5.55-2.09L235,208.32l-3.22-1.13-2.54-.86-.17-.06-.54-.18-.08,0h-.09l-.18-.08h0l-.09,0,0,0-.13-.06-1-.44-1.53-.65c-1.62-.67-3.25-1.33-4.89-2q-3.69-1.42-7.42-2.71-2.49-.85-5-1.65l-.56-.18-.6-.18h45.43c2.79,0,5.61.11,8.41,0h.18l.46.08,1.5.27,2.06.38c1.5.28,3,.56,4.5.86l3.24.66a.2.2,0,0,1,.1,0c.42.07.84.17,1.27.26.87.18,1.73.36,2.6.56l1.61.35a2.22,2.22,0,0,1,.37.09c.63.13,1.26.27,1.88.42s1.26.28,1.88.43l4.29,1c1.35.32,2.69.66,4,1l.16,0c.54.13,1.09.27,1.63.42q3.14.81,6.26,1.67l1.83.51c1,.27,1.95.55,2.92.84l.42.12c.86.24,1.72.5,2.58.76q6.43,1.92,12.79,4.09,2.07.71,4.14,1.44,1,.36,2.07.75t2,.75l1.6.61.87.34.45.17.21.08h.11l0,0h0l.24.1,1.3.59h0q.59.27,1.17.57c.34.16.67.33,1,.52s.67.35,1,.54a37.31,37.31,0,0,1,3.82,2.43,33.18,33.18,0,0,1,6.73,6.47l.36.45,0,0,0,0a.1.1,0,0,0,0,.05h0l.12.16.55.76c.3.41.59.83.86,1.25l.81,1.28c.19.32.38.64.56,1l.09.15a2,2,0,0,1,.11.2c.25.44.49.88.73,1.33l.09.18c.27.53.53,1.06.78,1.6l.3.64c.07.17.15.35.23.52a.08.08,0,0,0,0,0s0,0,0,0v0l0,0h0v0h0v0h0s0,0,0,0h0c.18.46.36.91.53,1.38l.12.31.09.27a2.67,2.67,0,0,1,.09.26c.09.24.17.48.25.72.24.68.45,1.35.65,2,.16.51.3,1,.44,1.55l0,.13q.19.7.36,1.41c0,.11.05.23.07.34.15.62.28,1.24.4,1.86.09.43.17.85.25,1.28,0,.14.05.28.07.42a2.51,2.51,0,0,1,0,.27c.09.52.17,1,.25,1.56h0s0,0,0,0,0,.06,0,.07v0s0,0,0,0v0a0,0,0,0,0,0,0v.17a0,0,0,0,1,0,0v0s0,.07,0,.11l.12,1.13c0,.05,0,.09,0,.14l0,.35c0,.11,0,.22,0,.34s0,.51.07.77l.06.77,0,.39c0,.47.06.94.08,1.41a.34.34,0,0,1,0,.1c0,.34,0,.69,0,1,0,.14,0,.29,0,.44s0,.51,0,.76c0,.75,0,1.51,0,2.27a3.84,3.84,0,0,0,3.75,3.75l2.16.22.7.08.46.05.44.06h.19c.93.13,1.86.28,2.78.44l1.24.22,1.2.23.32.06c1.08.22,2.17.46,3.24.72.43.1.85.2,1.27.32q3.9,1,7.7,2.31l.58.2c.59.21,1.18.43,1.76.66,1.63.62,3.23,1.3,4.82,2l.47.23c2.24,1.05,4.46,2.23,6.7,3.55l.19.11c.91.54,1.81,1.09,2.7,1.67.48.29.95.61,1.42.93s.94.64,1.4,1l.88.63.73.55.38.29.07.06h0l0,0h0l0,0,0,0h0l0,0,0,0h0l.13.1c1,.77,1.94,1.55,2.89,2.37.52.42,1.05.87,1.56,1.34s1,.9,1.53,1.38,1,.93,1.5,1.41c1,.95,1.94,1.94,2.86,3,.32.36.64.72.94,1.08h0l.13.14,0,.05a.1.1,0,0,1,0,0c.07.09.13.19.19.28l.05.05a.1.1,0,0,0,0,.06q.14.19.3.39h0l.47.55.23.28.33.41c.11.14.22.27.31.4.33.45.64.9,1,1.36l.14.22c.31.45.61.9.9,1.36s.43.67.63,1a1.63,1.63,0,0,1,.11.17q1.18,2,2.22,4c.2.38.4.76.58,1.14a3.78,3.78,0,0,1,.17.35c.13.25.25.51.38.77s.36.77.53,1.17c.07.13.13.27.19.41s.18.41.26.62.3.69.44,1c.58,1.4,1.11,2.85,1.6,4.32.26.73.49,1.47.72,2.22s.45,1.5.65,2.25c.43,1.51.81,3,1.15,4.53q.19.81.36,1.62ZM339.86,220.83h0Zm0,0h0Zm89.52,81c-.13-.27-.27-.54-.41-.81l-.44-.82c-.1-.22-.22-.43-.34-.64-.19-.36-.39-.72-.59-1.08s-.35-.61-.54-.91-.45-.76-.68-1.14c-.67-1.11-1.38-2.2-2.14-3.26-.23-.35-.48-.69-.73-1s-.6-.84-.92-1.25-.51-.65-.77-1l-.19-.24a.31.31,0,0,0-.09-.11l0,0c-.37-.8-.76-1.6-1.15-2.39s-.81-1.64-1.23-2.46-.84-1.62-1.27-2.42-.88-1.61-1.33-2.4c-.89-1.6-1.82-3.18-2.77-4.74l-1.45-2.33c-1-1.54-2-3.06-3-4.57-.88-1.28-1.77-2.54-2.69-3.79-.32-.45-.65-.88-1-1.32-.55-.75-1.12-1.48-1.7-2.22a156.52,156.52,0,0,0-15-16.66l-1.81-1.7-1.35-1.22-.55-.5-1.39-1.23-1.4-1.21c-.64-.55-1.28-1.09-1.94-1.63s-1.3-1.07-2-1.6c-1.35-1.07-2.72-2.13-4.11-3.16l-.31-.23,0,0c-.92-.68-1.85-1.35-2.78-2s-1.88-1.3-2.83-1.94c-.63-.43-1.27-.85-1.91-1.26a1.17,1.17,0,0,0-.25-.16c-.54-.37-1.09-.71-1.64-1.05l0,0-1.95-1.2a155.82,155.82,0,0,0-15.11-8L345.21,215c-.89-.39-1.78-.78-2.67-1.15l-.2-.09-2-.83c-1-.42-2.08-.82-3.12-1.21-.53-.21-1.07-.41-1.6-.6l0,0,0,0h-.09l-.1-.06-.12-.05-1.4-.61-1.41-.58c-1.7-.68-3.42-1.31-5.13-1.94s-3.4-1.22-5.11-1.82l-.82-.27L319.1,205l-4-1.29c-2.9-.94-5.82-1.83-8.74-2.68l-3.63-1c-1.37-.39-2.75-.77-4.13-1.14l-2.81-.76h59.95c.62.12,1.23.22,1.85.35A80.44,80.44,0,0,1,372.25,203c2.31,1,4.92,2.27,7.27,3.54.92.49,1.85,1,2.77,1.5a26.54,26.54,0,0,1,3.64,2.34h0l0,0,.08.06.18.16.75.67c.44.41.87.83,1.28,1.26.09.1.18.19.26.29l.46.5.36.41.46.55a2.23,2.23,0,0,0,.18.2v0l0,0h0a1.29,1.29,0,0,0,.13.19l.47.67.18.24c.09.14.19.28.27.43q.53.78,1,1.59c.23.4.45.81.66,1.22s.29.55.42.83a3.13,3.13,0,0,1,.15.32l.15.31.15.32.1.24a.25.25,0,0,1,0,.07,0,0,0,0,1,0,0h0a.06.06,0,0,1,0,0s0,0,0,0l0,0s0,0,0,0l0,.05a.06.06,0,0,1,0,0h0c.09.22.17.44.25.66s.17.43.25.65c.25.71.48,1.42.68,2.14s.43,1.51.6,2.28c.08.28.14.56.2.85s.1.45.14.67,0,.2,0,.3c.09.43.17.87.24,1.31,0,.25.08.5.11.75v0s0,.07,0,.1,0,0,0,.08a.08.08,0,0,1,0,0s0,.08,0,.12a1.49,1.49,0,0,0,0,.21.88.88,0,0,0,0,.16,1.11,1.11,0,0,0,0,.17c0,.15,0,.3,0,.46l.12,1.37a3.85,3.85,0,0,0,2.75,3.62c.62.14,1.23.28,1.84.44,1.18.3,2.34.62,3.48,1,.39.11.78.24,1.17.38a56.14,56.14,0,0,1,8.25,3.48c.31.14.62.3.93.47,1.28.68,2.56,1.36,3.8,2.11.41.25.82.5,1.22.77l.66.44a10.81,10.81,0,0,1,1.35,1l.37.33c.31.28.61.56.89.85a15.09,15.09,0,0,1,1.88,2.22c.28.4.54.8.77,1.2l.32.54c.19.32.37.66.55,1a4.16,4.16,0,0,1,.24.47,31.71,31.71,0,0,1,2.29,6.39ZM375.89,415.25c-.24-.36-.49-.73-.75-1.09l0,0Zm8.63,12.92,0,0c-.39-.61-.78-1.21-1.18-1.81.34.51.68,1,1,1.53Zm-204.47-206c-.75-.61-1.5-1.21-2.26-1.8l-.09-.07,0,0h0l0,0C178.48,220.84,179.25,221.46,180.05,222.12Zm31.48,41.61-.42-1.08C211.25,263,211.39,263.34,211.53,263.73Zm2.6,7.48c-.15-.49-.3-1-.46-1.47.11.32.21.64.31,1S214.09,271,214.13,271.21Zm1,107.22c-.15.71-.31,1.42-.47,2.13a1.21,1.21,0,0,1-.05.18C214.78,380,215,379.2,215.12,378.43Zm3.47-20,0,.21s0-.07,0-.11S218.58,358.46,218.59,358.43Zm.37,20c-.15.71-.29,1.34-.41,1.88l-1.49-1.49Zm.43-83.12s0-.07,0-.1a.34.34,0,0,0,0-.1.58.58,0,0,0,0,.1A.38.38,0,0,0,219.39,295.29ZM221,329.91q-.21,7.23-.84,14.45C220.51,339.55,220.8,334.73,221,329.91Zm1.15,51.69c-.13.61-.27,1.21-.42,1.81L220.24,382C220.84,381.84,221.46,381.72,222.1,381.6Zm13.15,1.62h0Zm120.36,25-.69-.48c.15.09.29.19.43.29A2.48,2.48,0,0,1,355.61,408.27Zm6.14,4.51,0,0h0Zm32.88,32.61a193.37,193.37,0,0,0-17.87-19.65q-4.54-4.37-9.38-8.42,4.75,3.94,9.26,8.24l1.7,1.64q1.83,1.79,3.6,3.62c.64.66,1.27,1.32,1.9,2C387.63,436.84,391.24,441.05,394.63,445.39ZM255.87,268.91q-6.33-5.4-12.76-10.65l5.16,4.23Q252.09,265.67,255.87,268.91Zm20.81,18.47q-2-1.89-4.09-3.75l1,.94Zm11.44,10.78h0l-1.74-1.68,1.74,1.66Zm49.4,54.37q-4.33-5.13-8.76-10.17Q333.2,347.4,337.52,352.53Zm30.94,39.29q-3.6-4.9-7.27-9.75Q364.87,386.92,368.46,391.82Zm7.43,23.43c-.24-.36-.49-.73-.75-1.09l0,0Zm9.6,14.43c-.33-.52-.66-1-1-1.54s-.78-1.21-1.18-1.81c.34.51.68,1,1,1.53l.2.31C384.85,428.67,385.17,429.17,385.49,429.68Zm13.66,21.61a2.89,2.89,0,0,1-.38-.4,2.6,2.6,0,0,1-.27-.38l0,0-2.11-3.5q1.31,2.08,2.65,4.12Zm-105-145a1.42,1.42,0,0,1,0,.2h0l0-.19h0Zm90.08,25.24v0c-.52-.45-1-.87-1.54-1.3.27.22.54.42.81.65s.47.39.7.6c0,0,0,0,0,0ZM245,222.71q3.2,1.84,6.33,3.79,6.12,3.81,12.19,7.71C257.41,230.21,251.26,226.3,245,222.71Zm27.35,17.67-.45-.36.88.73Zm5.84,5.79-.08-.1-.34-.41a38.7,38.7,0,0,0-3.32-3.46c-.54-.5-1.1-1-1.67-1.45a51.09,51.09,0,0,1,5.44,5.47Zm.12.15,0,0,0,.06S278.26,246.33,278.26,246.32Zm0,0v0l0,0Zm.1.14h0Zm15.76,59.82h0l0,.19h0a1.42,1.42,0,0,0,0-.2Zm21,6.4-.83,0,1.67.06ZM375.46,334h0Zm.06,0h0l0,0Zm11.84,10.72-.39-.39c.25.25.5.5.74.76C387.6,345,387.48,344.88,387.36,344.76ZM400,359.46a133.5,133.5,0,0,0-9.24-11.1,143.54,143.54,0,0,1,10.92,13.48C401.11,361,400.55,360.24,400,359.46Zm13,6h0a.44.44,0,0,1,.08.11A.75.75,0,0,0,413,365.46Zm-.07-.14c-.06-.11-.11-.21-.16-.32v0h0l0,0v0h0a.09.09,0,0,0,0-.06h0a.83.83,0,0,0-.07-.13.61.61,0,0,1,.05.12l-.07-.06h0l-.23-.19.24.22h0a.4.4,0,0,1,0,.13v0l.34.5h0A.61.61,0,0,0,413,365.32Zm-53.48-76.68a299.65,299.65,0,0,0-38.14-33.93,306.66,306.66,0,0,1,51.28,48.88Q366.31,295.9,359.47,288.64ZM228.19,206l.18.08h.08Zm41,16.74q-6.56-3.21-13.26-6.11,12.41,5.41,24.34,11.83Q274.8,225.46,269.21,222.72Zm156,28.09a15.09,15.09,0,0,0-1.88-2.22A19.82,19.82,0,0,1,426,252C425.78,251.61,425.52,251.21,425.24,250.81Zm-30.88-28.17c-.08-.22-.16-.43-.25-.65q.51,1.38.93,2.79C394.84,224.06,394.61,223.35,394.36,222.64Zm-.62-1.62a.25.25,0,0,0,0-.07.47.47,0,0,0,.05.1A0,0,0,0,0,393.74,221Zm-5.47-8.44c-.41-.43-.84-.85-1.28-1.26l-.75-.67-.18-.16-.08-.06,0,0h0a26.54,26.54,0,0,0-3.64-2.34l.15.1a24.76,24.76,0,0,1,6.09,4.72C388.45,212.77,388.36,212.68,388.27,212.58ZM273.07,27.8,428.12,169a4.56,4.56,0,0,1-3.07,7.93H115a4.56,4.56,0,0,1-3.07-7.93L266.93,27.8A4.57,4.57,0,0,1,273.07,27.8Z"/></clipPath><linearGradient id="b" x1="-0.17" y1="269.12" x2="546.63" y2="269.12" gradientUnits="userSpaceOnUse"><stop offset="0" stop-color="#6667ab"/><stop offset="0.09" stop-color="#3d86ca"/><stop offset="0.18" stop-color="#00a4da"/><stop offset="0.27" stop-color="#00c0dc"/><stop offset="0.36" stop-color="#00d9d2"/><stop offset="0.45" stop-color="#17e6c4"/><stop offset="0.54" stop-color="#4cf2af"/><stop offset="0.63" stop-color="#7cfb94"/><stop offset="0.72" stop-color="#92fe7c"/><stop offset="0.81" stop-color="#aaff61"/><stop offset="0.9" stop-color="#c6ff40"/><stop offset="0.99" stop-color="#e3ff00"/></linearGradient></defs><g class="b"><rect class="c" x="-0.17" y="-4.28" width="546.8" height="546.8"/></g></svg>