<svg xmlns="http://www.w3.org/2000/svg" xmlns:xlink="http://www.w3.org/1999/xlink" viewBox="0 0 540 540"><defs><style>.a{fill:none;}.b{clip-path:url(#a);}.c{fill:url(#b);}</style><clipPath id="a"><path class="a" d="M496.36,199.32a160.85,160.85,0,0,1-11.81,40c-9.3,21.7-21.38,42.29-34.61,61.81a572,572,0,0,1-36.14,47.22A933.09,933.09,0,0,1,349.49,417Q312.91,452.45,273,484.34l-.17.13a2,2,0,0,1-2.86.26q-16.76-12.86-32.95-26.43-31.69-26.66-60.91-56.08-29-29.18-55.24-60.86a2.53,2.53,0,0,1,.51-3.92c1.42-.83,2.84-1.67,4.24-2.52a184.29,184.29,0,0,0,45-38.6c7.84-9.36,14.35-19.6,20.54-30.1,6-10.24,11.63-20.84,15.38-32.16,4-12.15,5.93-25.19,3.6-37.89a66,66,0,0,0-12.53-28.09c-6.3-8.25-14.3-15.16-22.55-21.39-10.22-7.71-21-14.67-31.74-21.62A305.37,305.37,0,0,0,78.61,93.33a2.53,2.53,0,0,1-1.1-4.18A124.45,124.45,0,0,1,108,67.88C125.08,59.37,144.18,55,163.33,56.2a109.49,109.49,0,0,1,53.42,18.51c24.14,16,43.18,39,53.31,66.07,0-.08.05-.17.08-.25a122.9,122.9,0,0,1,43.48-60.3,121.41,121.41,0,0,1,48.9-21.29,5.21,5.21,0,0,0,.07,3.17c.21.6.41,1.19.6,1.79a126,126,0,0,1,4.29,16.9c.17.9.32,1.8.47,2.7.07.5.15,1,.22,1.49,0,.22.07.45.1.67,0,0,0,.06,0,.09s0,0,0,.08c.22,2,.47,4,.63,6a125.84,125.84,0,0,1,.32,14.27q-.12,3.93-.51,7.84c-.11,1.15-.23,2.3-.38,3.44,0,0,0,.07,0,.11a.13.13,0,0,0,0,.06h0a.38.38,0,0,1,0,.1h0s0,.07,0,.11v.06s0,0,0,0h0s0,0,0,.07v0l-.3,2a124.43,124.43,0,0,1-2.85,13.22q-1.63,6-3.85,11.84c-.34.89-.69,1.77-1,2.65,0,.09-.07.19-.12.28h0a0,0,0,0,1,0,0h0c-.09.2-.39.93-.5,1.2q-1.05,2.4-2.19,4.75A127.73,127.73,0,0,1,348.09,170c-1.84,2.71-.6,7.05,2.24,8.55a6.41,6.41,0,0,0,8.56-2.24,132.44,132.44,0,0,0,21.2-95.54,126.9,126.9,0,0,0-4.34-18.56q-.53-1.71-1.11-3.39a7.26,7.26,0,0,0-.7-1.46c1.24-.11,2.48-.21,3.72-.28a107.21,107.21,0,0,1,42.41,6.23,6.21,6.21,0,0,0-1.79,4.66,5.62,5.62,0,0,0,.19,1.33q1.41,5.6,2.39,11.29.25,1.51.48,3c0,.25.07.49.11.74a.62.62,0,0,0,0,.09,2.27,2.27,0,0,1,.05.34c0,.36.09.73.13,1.09q.44,3.59.68,7.17a140.52,140.52,0,0,1,.22,15.63q-.17,4.32-.62,8.61c-.12,1.2-.31,2.39-.42,3.58,0-.09,0-.16,0-.22,0,.3-.09.87-.13,1.09-.11.73-.22,1.45-.34,2.18A142.07,142.07,0,0,1,413.41,152c-.38,1-.76,1.93-1.16,2.9l-.28.67s0,0,0,0h0s0,.08,0,.09l0,0-.49,1.12q-1.21,2.74-2.54,5.45-2.49,5.09-5.38,10-2.73,4.64-5.78,9.06-1.29,1.88-2.64,3.71l-1.23,1.64a.76.76,0,0,0-.08.11l-.55.72a6.14,6.14,0,0,0,.29,8.46c2.24,2.06,6.69,2.75,8.83,0a160,160,0,0,0,21.84-37.43A146,146,0,0,0,435,96.59a153.67,153.67,0,0,0-2.75-22.83q-.6-3.06-1.34-6.1c18.79,8.5,35.54,21.26,47.68,38a5.81,5.81,0,0,0-3.26,1.7,8.16,8.16,0,0,0-.86,1.11,5,5,0,0,0-1,3.31,123.46,123.46,0,0,1,.85,23.14c-.13,2.3-.33,4.61-.6,6.9-.06.54-.1,1.09-.19,1.61v0c0,.28-.11.61-.13.77q-.29,2-.66,3.93a119,119,0,0,1-3.55,14.27c-.67,2.1-1.39,4.19-2.17,6.25-.38,1-.77,2-1.16,3h0a.06.06,0,0,1,0,.05,0,0,0,0,1,0,0c0,.09-.08.17-.11.26a.61.61,0,0,1,0,.12.61.61,0,0,0-.05.12l0,0a1.12,1.12,0,0,1,0,.13c-.17.4-.35.8-.53,1.21q-2.46,5.53-5.47,10.8-2.73,4.78-5.87,9.32-1.43,2.06-2.92,4c-.22.29-.44.57-.65.86l-.08.1,0,.06,0,0h0l-1.35,1.67a128.5,128.5,0,0,1-11.23,12.1,6.31,6.31,0,0,0,0,8.84,6.37,6.37,0,0,0,8.84,0A134.86,134.86,0,0,0,469,193.15,128,128,0,0,0,486.58,139c.23-2.45.37-4.9.44-7.35a121.09,121.09,0,0,0-.27-12.78,109.23,109.23,0,0,1,11.48,39.34C499.6,171.94,498.38,185.69,496.36,199.32Z"/></clipPath><linearGradient id="b" y1="266.6" x2="546.8" y2="266.6" gradientUnits="userSpaceOnUse"><stop offset="0" stop-color="#6667ab"/><stop offset="0.09" stop-color="#3d86ca"/><stop offset="0.18" stop-color="#00a4da"/><stop offset="0.27" stop-color="#00c0dc"/><stop offset="0.36" stop-color="#00d9d2"/><stop offset="0.45" stop-color="#17e6c4"/><stop offset="0.54" stop-color="#4cf2af"/><stop offset="0.63" stop-color="#7cfb94"/><stop offset="0.72" stop-color="#92fe7c"/><stop offset="0.81" stop-color="#aaff61"/><stop offset="0.9" stop-color="#c6ff40"/><stop offset="0.99" stop-color="#e3ff00"/></linearGradient></defs><g class="b"><rect class="c" y="-6.8" width="546.8" height="546.8"/></g></svg>