<svg xmlns="http://www.w3.org/2000/svg" xmlns:xlink="http://www.w3.org/1999/xlink" viewBox="0 0 540 540"><defs><style>.a{fill:none;}.b{clip-path:url(#a);}.c{fill:url(#b);}</style><clipPath id="a"><path class="a" d="M180.66,167.37a.3.3,0,0,1-.08.08l.07-.08Zm208.13,31.35,0,0h0ZM506.26,313.25a5.8,5.8,0,0,1-.92.8c-3.35,2.95-6.77,5.85-10.22,8.67a382,382,0,0,1-73.82,47.46,564.07,564.07,0,0,1-59.57,24.61c-17.83,6.37-35.78,12.85-54.36,16.72-37,7.71-75.57,3.74-111.14-8.45a349.28,349.28,0,0,1-90-46.86c-8.18-5.86-16.09-12.1-24.15-18.13Q58.7,320.6,34.53,304.2c-3.14-2.14-5.1-6.77-2.69-10.26q5.1-7.37,10.42-14.57a526.14,526.14,0,0,1,42.22-50.26c12.84-13.42,26.5-26,40.5-38.24,16.26-14.16,33.55-27.08,53.26-36a205.59,205.59,0,0,1,64.25-17.35,187.44,187.44,0,0,1,50.06,1.77c16.26,2.71,31.87,7.83,47.1,14,36.67,14.94,68.84,39.11,96.14,67.59,24.93,26,46.85,54.63,70.47,81.77C509.12,305.26,509.22,310.64,506.26,313.25ZM180.58,167.45a.3.3,0,0,0,.08-.08h0Zm-29.42,43.32-.46,1.14c-.33.83-.65,1.65-1,2.49-1.25,3.34-2.37,6.74-3.35,10.17s-1.87,7.12-2.59,10.73c-.36,1.79-.67,3.59-1,5.39-.07.49-.15,1-.22,1.46,0,.13-.05.36-.08.56v0c0,.06,0,.11,0,.15h0a0,0,0,0,0,0,0v0a.08.08,0,0,0,0,0h0s0,.05,0,.07v0c-.09.71-.18,1.41-.26,2.13A137.66,137.66,0,0,0,141.5,267c.15,3.18.4,6.34.77,9.5,0,.48.11,1,.17,1.44l0,.2a.78.78,0,0,1,0,.14.92.92,0,0,1,0,.22h0a.08.08,0,0,1,0,0c.09.55.14,1.12.23,1.67.25,1.61.52,3.21.83,4.8a133.75,133.75,0,0,0,4.75,18c.95,2.81,2,5.58,3.12,8.32h0v0s0,0,0,.05h0l0,.07,0,.08a.47.47,0,0,1,.06.15.61.61,0,0,1,0,.12v0l0,.09.42,1c.31.69.62,1.38.94,2.07q.94,2.06,2,4.07a133.17,133.17,0,0,0,9.23,15.62c.88,1.28,1.77,2.54,2.69,3.79l1.32,1.75,0,0a.21.21,0,0,1,0,.06l0,0,.05.06,0,.05.64.81q2.82,3.56,5.89,6.91a132.09,132.09,0,0,0,13,12.4c1.13.95,2.3,1.87,3.46,2.79l.09.08.11.08,1,.72,1.65,1.21q3.67,2.65,7.53,5.05A130.78,130.78,0,0,0,217.7,379l1.22.53.12.05.16.07,1.76.71c1.45.58,2.9,1.13,4.37,1.65q4.26,1.51,8.62,2.73t9,2.17c1.5.3,3,.57,4.51.82.82.14,1.64.26,2.46.38l.33.05a.24.24,0,0,1,.1,0h.05l.11,0h0l.18,0h0l.49.06a130.2,130.2,0,0,0,18.93.93c3.12-.08,6.24-.26,9.35-.56q1.24-.12,2.49-.27l1.06-.13.48-.07h.25c1.36-.23,2.73-.39,4.08-.63a128.7,128.7,0,0,0,17.83-4.44c2.9-1,5.77-2,8.61-3.17l.44-.18h.05l.05,0h0l.11-.05.1,0,.07,0h0l.31-.13,2-.91c1.36-.61,2.71-1.25,4-1.92a128.91,128.91,0,0,0,15.65-9.18c1.23-.84,2.43-1.7,3.63-2.57l1.76-1.32.05,0,.11-.08.06-.05.1-.08,0,0h0l.65-.52q3.54-2.81,6.89-5.87a132.19,132.19,0,0,0,12.42-13c.91-1.08,1.79-2.17,2.66-3.28l.05-.06.16-.2h0s0,0,0,0l.18-.25.62-.82,1.33-1.8q2.63-3.63,5-7.43a134.32,134.32,0,0,0,8.58-16.05c.31-.69.61-1.38.91-2.07l0,0v0s0,0,0-.08h0v0l0-.05,0-.05v0l0-.08.42-1c.57-1.41,1.12-2.83,1.64-4.25q1.62-4.4,2.91-8.89a134,134,0,0,0,4-18.36c0-.12,0-.26.05-.39v.1c0-.36.09-.72.13-1.08.1-.78.19-1.56.27-2.35q.25-2.36.42-4.74.35-4.89.35-9.8c0-3.87-.16-7.74-.49-11.59q-.22-2.75-.57-5.48a1.5,1.5,0,0,1,0-.2.08.08,0,0,0,0,0c0-.06,0-.12,0-.17l0-.24-.15-1.06c-.14-.94-.29-1.87-.45-2.8a134,134,0,0,0-5.61-21.85c-.62-1.8-1.29-3.59-2-5.37l-.56-1.37-.23-.57a0,0,0,0,0,0,0,0,0,0,0,0,0,0s0,0,0,0l0-.1,0,0a1,1,0,0,0,0-.1s0,0,0,0c-.12-.26-.23-.51-.34-.77l-.51-1.16q-2.24-5-4.87-9.77t-5.73-9.46q-1.27-1.92-2.61-3.78-7.93-4.94-16.23-9.21a234.36,234.36,0,0,0-25-11,218.45,218.45,0,0,0-22.5-7.27q-6.76-1.77-13.65-3c-2.3-.42-5.66-.95-7.24-1.16-1.42-.19-4.78-.57-6.94-.76a178,178,0,0,0-22.74-.6c-3.43.14-6.87.37-10.29.7-2.07.2-4.14.44-6.21.69h-.09l-.18,0-.23,0c-.47.07-.94.13-1.4.21-1.12.16-2.23.34-3.34.52a183.45,183.45,0,0,0-57.41,19.3Q172.42,176,170,179c-.51.63-1,1.27-1.51,1.91l0,0-.08.11-.11.14-.2.26-.72,1q-1.63,2.17-3.16,4.42a134.09,134.09,0,0,0-10.55,18.4c-.71,1.48-1.37,3-2,4.48h0v0C151.51,209.92,151.25,210.54,151.16,210.77ZM490.4,307.18q-2.47-2.85-4.92-5.72c-22-25.78-42.64-52.81-66.84-76.62-5.36-5.27-10.95-10.29-16.63-15.21q-4.92-4.27-10-8.37c-1-.79-1.95-1.56-2.93-2.33l0,0,0,0-.05,0h0l-.06-.05,0,0,0,0-.05,0-.3-.23-.17-.13a138.92,138.92,0,0,1,14.58,62.41,147.32,147.32,0,0,1-1.45,20,139.19,139.19,0,0,1-30.86,69.67,136.85,136.85,0,0,1-27.91,25.43,133.36,133.36,0,0,1-145.86,3.37,137.07,137.07,0,0,1-28.91-24,139.3,139.3,0,0,1-33.94-67.87,141.79,141.79,0,0,1,11-86.93c1.87-4,4-7.87,6.21-11.66-9.66,7.36-18.66,15.44-28.24,24.13C110,224.49,97.65,236.63,86,249.48a491,491,0,0,0-37.21,46.34l3,2.09q23,16,45.37,32.91c7.66,5.82,15.29,11.65,23.23,17.09C148.34,367,177.88,382.17,210,391.74a224.28,224.28,0,0,0,25.81,6.06c5.46.94,8.42,1.33,14,1.85s11,.8,16.49.86c4.47.05,8.95,0,13.41-.3,2.19-.13,4.38-.29,6.57-.51,1.07-.1,2.15-.21,3.22-.34l1.28-.15.7-.09h.06l.16,0H292l.12,0,.87-.13,1.58-.24,2.84-.47c2-.35,4-.74,6-1.15,4.05-.85,8.08-1.83,12.08-2.9,19.47-5.23,38.58-12.24,57.44-19.31a443,443,0,0,0,51.58-23.08A361.87,361.87,0,0,0,490.4,307.18ZM333.11,260.83a72.15,72.15,0,0,1-.89,10.69A66.59,66.59,0,0,1,280,326.1a67.82,67.82,0,0,1-41.36-4.7A66.57,66.57,0,0,1,200,255.93a67.56,67.56,0,0,1,15.26-37.74,66.53,66.53,0,0,1,73.82-20.06,67.94,67.94,0,0,1,32,24.46A66.61,66.61,0,0,1,333.11,260.83Zm-122.83,7.83c0-.11,0-.22,0-.32l0-.16Zm3.78-29.56c0-.06.1-.23.15-.36A1.11,1.11,0,0,0,214.06,239.1Zm.19,44a.36.36,0,0,0,0-.11v0l-.13-.25A1.74,1.74,0,0,0,214.25,283.05Zm0-44.47a.73.73,0,0,0-.05.12s0,0,0,0A.46.46,0,0,1,214.28,238.58ZM231.75,216l-.09.11.23-.18C232.34,215.52,232,215.75,231.75,216Zm12.87-7.47-.39.16h.05l.15-.06.13,0ZM259.1,317.07l-.16,0-.32,0Zm14.81-112.46h0Zm.47.07a1.18,1.18,0,0,0-.39-.06ZM288.65,313h0l-.07,0Zm22.6-86.95.15.2C311.92,226.92,311.4,226.23,311.25,226.08Zm-10,79.53-.1.08c-.18.14-.26.26-.26.31h0C300.86,306.08,301,306,301.23,305.61Zm10.17-10.22-.18.23a.84.84,0,0,0,.4-.39C311.65,295.16,311.57,295.18,311.4,295.39Zm7.33-12.54a.16.16,0,0,0,0,.07.36.36,0,0,0,0,.07.08.08,0,0,0,0,0A1.12,1.12,0,0,0,318.73,282.85Zm0-43.94a.31.31,0,0,0-.05-.12s0,.05,0,.06A.16.16,0,0,0,318.76,238.91ZM210.24,268.34l0-.16.07.48C210.27,268.55,210.25,268.44,210.24,268.34Zm0-15.4c0-.16,0-.11,0,0Zm3.77-13.84c0-.06.1-.23.15-.36A1.11,1.11,0,0,0,214.06,239.1Zm.16,43.84v0l-.13-.25a1.74,1.74,0,0,0,.17.38A.36.36,0,0,0,214.22,282.94Zm0-44.24s0,0,0,0a.46.46,0,0,1,0-.09A.73.73,0,0,0,214.23,238.7ZM231.75,216l-.09.11.23-.18C232.34,215.52,232,215.75,231.75,216ZM244.26,313h0a.93.93,0,0,0,.22.1l-.18-.08Zm0-104.39h.05l.15-.06.13,0,.06,0ZM258.94,317l-.32,0,.48.07ZM273.81,204.6h0Zm.18,0,.39.06A1.18,1.18,0,0,0,274,204.62Zm-.1,112.43c-.15,0-.09,0,0,0Zm14.74-108.42-.1,0,.07,0Zm0,104.41-.07,0,.11-.05Zm12.52-7.35c-.18.14-.26.26-.26.31h0c0,.07.16,0,.37-.4Zm10.12-79.61.15.2C311.92,226.92,311.4,226.23,311.25,226.08Zm.15,69.31-.18.23a.84.84,0,0,0,.4-.39C311.65,295.16,311.57,295.18,311.4,295.39Zm7.29-12.47a.36.36,0,0,0,0,.07.08.08,0,0,0,0,0,1.12,1.12,0,0,0,.08-.18A.16.16,0,0,0,318.69,282.92Zm0-44.13s0,.05,0,.06a.16.16,0,0,0,0,.06A.31.31,0,0,0,318.71,238.79Zm3.86,29.93c0,.12,0,.15,0,0Zm-112.33-.38,0-.16.07.48C210.27,268.55,210.25,268.44,210.24,268.34Zm0-15.4c0-.16,0-.11,0,0Zm3.93,30v0l-.13-.25a1.74,1.74,0,0,0,.17.38A.36.36,0,0,0,214.22,282.94Zm0-44.24s0,0,0,0a.46.46,0,0,1,0-.09A.73.73,0,0,0,214.23,238.7ZM231.75,216l-.09.11.23-.18C232.34,215.52,232,215.75,231.75,216ZM244.26,313h0a.93.93,0,0,0,.22.1l-.18-.08Zm0-104.39h.05l.15-.06.13,0,.06,0ZM258.94,317l-.32,0,.48.07ZM273.81,204.6h0Zm.08,112.45c-.15,0-.09,0,0,0Zm14.74-108.42-.1,0,.07,0Zm0,104.41-.07,0,.11-.05Zm12.52-7.35c-.18.14-.26.26-.26.31h0c0,.07.16,0,.37-.4Zm10.12-79.61.15.2C311.92,226.92,311.4,226.23,311.25,226.08Zm.15,69.31-.18.23a.84.84,0,0,0,.4-.39C311.65,295.16,311.57,295.18,311.4,295.39Zm7.29-12.47a.36.36,0,0,0,0,.07.08.08,0,0,0,0,0,1.12,1.12,0,0,0,.08-.18A.16.16,0,0,0,318.69,282.92Zm0-44.13s0,.05,0,.06a.16.16,0,0,0,0,.06A.31.31,0,0,0,318.71,238.79Zm3.86,29.93c0,.12,0,.15,0,0Z"/></clipPath><linearGradient id="b" x1="-6.31" y1="271.91" x2="540.48" y2="271.91" gradientUnits="userSpaceOnUse"><stop offset="0" stop-color="#6667ab"/><stop offset="0.09" stop-color="#3d86ca"/><stop offset="0.18" stop-color="#00a4da"/><stop offset="0.27" stop-color="#00c0dc"/><stop offset="0.36" stop-color="#00d9d2"/><stop offset="0.45" stop-color="#17e6c4"/><stop offset="0.54" stop-color="#4cf2af"/><stop offset="0.63" stop-color="#7cfb94"/><stop offset="0.72" stop-color="#92fe7c"/><stop offset="0.81" stop-color="#aaff61"/><stop offset="0.9" stop-color="#c6ff40"/><stop offset="0.99" stop-color="#e3ff00"/></linearGradient></defs><g class="b"><rect class="c" x="-6.31" y="-1.49" width="546.8" height="546.8"/></g></svg>