<svg xmlns="http://www.w3.org/2000/svg" xmlns:xlink="http://www.w3.org/1999/xlink" viewBox="0 0 540 540"><defs><style>.a{fill:none;}.b{clip-path:url(#a);}.c{fill:url(#b);}</style><clipPath id="a"><path class="a" d="M242.78,413.5c-.07-.54-.15-1.08-.22-1.61.06.41.11.81.18,1.22C242.75,413.24,242.76,413.37,242.78,413.5Zm-.19-32.33c0-.33.09-.65.14-1s.09-.67.13-1ZM251,443.59s0,0,0,.05l0,.06S251,443.63,251,443.59Zm0-94,.08-.18a2.44,2.44,0,0,1,.1-.24c0-.05,0-.09.05-.13v0C251.22,349.16,251.12,349.4,251.05,349.6Zm16.09,121.62a.08.08,0,0,0,0,0l.06.08Zm-.36-148.69.16-.2.14-.19A2.14,2.14,0,0,0,266.78,322.53Zm.49,148.87s0,0,0,.05h0A.13.13,0,0,0,267.27,471.4ZM346,276.12l1-.12,1-.15ZM379.8,517.29l-1.18.17,2-.27Zm-1.18-241.46.85.12,1.15.14Zm80.82,195.63h0a.09.09,0,0,1,0-.05A.13.13,0,0,0,459.44,471.46Zm0-149.6h0l0,0Zm.15,149.36,0,0,.06-.08A.08.08,0,0,0,459.62,471.22ZM459.57,322l.05.07s0,0,0,0A.48.48,0,0,0,459.57,322Zm16,122.1.07-.15v0C475.58,444,475.55,444.05,475.53,444.1Zm.07-.17,0-.1.06-.16Zm.27-93.92,0,.09v0Zm0,.09h0l0,0A.06.06,0,0,0,475.91,350.1ZM484,413.3c0,.19,0,.39-.07.58l.27-2C484.14,412.36,484.07,412.83,484,413.3Zm0-33.5c0,.12,0,.25,0,.38.07.41.12.81.18,1.22C484.13,380.87,484.06,380.33,484,379.8ZM175.82,157.41l.06.09.05.07.07.08s0,0,0,0A1.84,1.84,0,0,0,175.82,157.41Zm.42.55-.07-.09a.76.76,0,0,0-.08-.11l-.09-.11a.61.61,0,0,0,.07.1h0l0,.05s0,0,0,0a1.33,1.33,0,0,0,.14.19h0Zm5.15,7.73c-.33-.55-.66-1.1-1-1.64.16.24.3.47.45.71S181.21,165.38,181.39,165.69ZM500.07,396.61v.07a144.55,144.55,0,0,1-1.63,20.78,136.06,136.06,0,0,1-33.29,70.42A136.59,136.59,0,0,1,256,481.12a141.65,141.65,0,0,1-20.17-35.38,137.32,137.32,0,0,1-3.26-88.82,133.31,133.31,0,0,1,6.12-16.21l-3.09-2.29c-3.31-2.45-6.64-4.86-10-7.29L189.91,305l-17.57-12.85-8.58-6.28c-.65-.48-1.32-.93-2-1.39A92.29,92.29,0,0,1,40.57,150.15,98,98,0,0,1,59.1,131.44a92.22,92.22,0,0,1,122.27,9.62c.23-.11.46-.22.68-.34,2.13-1.11,4.27-2.2,6.4-3.29,4.37-2.25,8.73-4.53,13.09-6.8l47-24.43L272.16,94l11.54-6c2.05-1.07,4.11-2.25,6.22-3.29a68.43,68.43,0,0,1,.72-25.62A67.11,67.11,0,0,1,362.85,7a70.74,70.74,0,0,1,20.57,5.42,67.18,67.18,0,0,1,40.05,61.42V74c0,.12,0,.24,0,.36a76.5,76.5,0,0,1-.88,10.26A67.11,67.11,0,0,1,331,136.21a71.67,71.67,0,0,1-15.28-8.72,5.39,5.39,0,0,1-.5.33c-2,1.23-4.13,2.23-6.2,3.3q-6.67,3.45-13.36,6.9l-48.19,25L223.1,175.72,211,182c-2,1.06-4.07,2.16-6.11,3.23a91.7,91.7,0,0,1,2.21,19.46c0,.13,0,.25,0,.38v0c0,.12,0,.24,0,.36a98.06,98.06,0,0,1-1.5,16.13,90.64,90.64,0,0,1-14.27,35.12q5.79,4.26,11.59,8.52c19.07,13.95,38,28,57.21,41.84a136.62,136.62,0,0,1,31.14-26.59A136.09,136.09,0,0,1,378,260.77a140.45,140.45,0,0,1,40.11,10.63,136.44,136.44,0,0,1,82,125.21ZM388.77,114.88l-.23.19A.9.9,0,0,0,388.77,114.88Zm8.42-73.5s.15.2.3.38A1.48,1.48,0,0,0,397.19,41.38Zm-73.41-8.49c.08,0,.18-.14.28-.22A1,1,0,0,0,323.78,32.89ZM304.4,80.94a60.7,60.7,0,0,0,2,8.66c.21.68.43,1.36.67,2s.42,1.16.64,1.73l.36.91s0,0,0,0a0,0,0,0,0,0,0c.11.26.22.51.34.76s.31.68.48,1,.42.88.65,1.31.32.62.49.93c.3.56.6,1.11.91,1.65l.08.13c.34.59.69,1.17,1.06,1.75q.3.5.63,1t.66,1c.08.13.17.25.25.37s.31.43.47.65l.35.49.1.12.16.23h0a.08.08,0,0,1,0,0l.07.09c.32.39.63.78.95,1.16.11.12.21.25.33.37l.46.54c.35.41.71.81,1.07,1.2.66.71,1.34,1.41,2,2.09l.61.59.07.06a.08.08,0,0,0,0,0l.28.27a.47.47,0,0,1,.1.1c.94.87,1.91,1.72,2.9,2.54.16.13.32.26.49.38a.21.21,0,0,0,.08.06l0,0h0l.33.26c.73.54,1.47,1.07,2.22,1.57a58.93,58.93,0,0,0,9.05,5,52.24,52.24,0,0,0,27.45,3.64,50.78,50.78,0,0,0,21.3-7.93c1.21-.78,2.4-1.6,3.55-2.47l.09-.06.55-.45q.82-.67,1.62-1.38a60.22,60.22,0,0,0,6.08-6.19l.68-.85a.44.44,0,0,0,.09-.11c.21-.27.77-1,1-1.27.86-1.2,1.68-2.44,2.46-3.7a60,60,0,0,0,3.67-7A59.87,59.87,0,0,0,408.05,81a59.46,59.46,0,0,0,0-14.11,59.9,59.9,0,0,0-3.72-13.48.36.36,0,0,0,0-.09,59.13,59.13,0,0,0-4.19-7.75c-.77-1.22-1.59-2.39-2.45-3.55-.17-.21-.34-.43-.52-.64-.45-.55-.91-1.09-1.38-1.63a60.22,60.22,0,0,0-6.2-6.07c-.29-.25-.58-.49-.88-.72h0l0,0,0,0a.31.31,0,0,1-.1-.08l0,0c-.32-.25-.88-.69-1.14-.88-1.2-.87-2.44-1.69-3.7-2.46a57.18,57.18,0,0,0-7.24-3.77,58.82,58.82,0,0,0-13.21-3.57,60.3,60.3,0,0,0-13.89,0,59.6,59.6,0,0,0-13.57,3.72l-.12.05A61.72,61.72,0,0,0,327.84,30c-1.21.78-2.4,1.6-3.55,2.47l-.09.06c-.18.16-.36.3-.55.45q-.82.67-1.62,1.38A60.24,60.24,0,0,0,316,40.59c-.3.35-.6.73-.88,1.09h0c-.25.32-.71.88-.9,1.15q-1.29,1.8-2.46,3.69a60.16,60.16,0,0,0-3.67,7,59.64,59.64,0,0,0-3.66,13.32A61.39,61.39,0,0,0,304.4,80.94ZM191.48,215.68a84.34,84.34,0,0,0,0-21.22s0-.07,0-.1a87.51,87.51,0,0,0-2.8-12.27c-.06-.22-.13-.45-.21-.67s-.13-.44-.21-.66c-.24-.75-.5-1.5-.76-2.24s-.51-1.41-.79-2.11q-.24-.65-.51-1.29c0-.09-.07-.19-.11-.28l0,0v0s0,0,0,0,0,0,0,0l0,0a.94.94,0,0,0-.06-.15c0-.1-.09-.21-.14-.31-.26-.59-.53-1.17-.81-1.75s-.58-1.2-.88-1.8-.57-1.12-.86-1.67-.6-1.1-.91-1.65-.63-1.12-1-1.67c-.18-.31-.36-.62-.55-.93s-.29-.47-.45-.71c-.33-.54-.67-1.08-1-1.62s-.66-1-1-1.5-.61-.88-.92-1.31-.58-.8-.87-1.2c-.07-.09-.14-.19-.22-.28h0a.08.08,0,0,0,0,0h0a0,0,0,0,1,0,0v0l0-.07-.07-.09a.76.76,0,0,0-.08-.11,23.11,23.11,0,0,0-2.24-2.78h0l-1.62-1.75a86.08,86.08,0,0,0-8.75-8.33l-1.29-1,0,0-.18-.14c-.69-.52-1.38-1-2.09-1.52-1.65-1.17-3.34-2.27-5.07-3.32a84.75,84.75,0,0,0-9.93-5.13,86.39,86.39,0,0,0-19.46-5.35h-.08a86.61,86.61,0,0,0-21,0,85.48,85.48,0,0,0-19.11,5.16h0A85.16,85.16,0,0,0,72.84,140q-2.41,1.54-4.71,3.24l-.07.06h0l-.3.22.14-.09-.56.43-.07,0-.86.69c-.76.63-1.51,1.26-2.25,1.91a86.4,86.4,0,0,0-8.94,9.11l-1,1.26c-.07.08-.15.18-.25.28h0l0,0a3.34,3.34,0,0,0-.71.93l.17-.2-1,1.32c-1.21,1.69-2.37,3.42-3.46,5.2a84.85,84.85,0,0,0-5.39,10.31,85.83,85.83,0,0,0-5.42,19.75,86.54,86.54,0,0,0,0,21,85.69,85.69,0,0,0,5.34,19.55A83.93,83.93,0,0,0,49.77,247c1,1.6,2.12,3.18,3.24,4.71a.64.64,0,0,0,.1.13l.09.12.12.16h0l.15.19,0,0,.16.21.7.86c.62.76,1.25,1.51,1.9,2.25a86.31,86.31,0,0,0,9.11,8.93l1.26,1.05L67,266a3.69,3.69,0,0,0,.94.73l-.14-.12,1.26.92q2.53,1.83,5.2,3.46a84.61,84.61,0,0,0,11,5.66h0a86.27,86.27,0,0,0,19.14,5.16,87.53,87.53,0,0,0,21.09,0l.26,0a86.52,86.52,0,0,0,18.81-5.15A85.11,85.11,0,0,0,156.83,270q2.64-1.69,5.14-3.58l.19-.14,0,0,.09-.07,1.11-.91c.81-.66,1.6-1.34,2.38-2a84.71,84.71,0,0,0,8.72-8.95c.4-.48.8-1,1.19-1.45l.39-.49a.19.19,0,0,0,.06-.07l.06-.08c.47-.6.91-1.22,1.34-1.84q1.77-2.49,3.35-5.1a85.48,85.48,0,0,0,5.45-10.6v0A86,86,0,0,0,191.48,215.68ZM484,413.3a129.89,129.89,0,0,0,0-33.12c.07.41.12.81.18,1.22-.07-.53-.14-1.07-.22-1.6,0,.12,0,.25,0,.38a128.31,128.31,0,0,0-3.71-17.34c-.83-2.88-1.76-5.74-2.79-8.56-.51-1.39-1-2.77-1.6-4.14a.06.06,0,0,0,0,0s0,0,0,0l0-.07a0,0,0,0,0,0,0,1.08,1.08,0,0,0-.08-.19.14.14,0,0,0,0-.06l0,0a.76.76,0,0,0,0-.11c-.05-.14-.11-.28-.17-.41-.29-.67-.6-1.35-.9-2A127.93,127.93,0,0,0,467.11,333c-1.42-2.32-2.91-4.6-4.48-6.82-.78-1.11-1.58-2.21-2.39-3.29l-.62-.81s0,0,0,0a.48.48,0,0,0-.09-.11.44.44,0,0,0-.08-.11l0,0,0,0-.51-.64a130.91,130.91,0,0,0-10.94-12q-2.79-2.71-5.75-5.25-1.67-1.43-3.39-2.81l-1.3-1,0,0-.36-.27A129.41,129.41,0,0,0,423.82,291c-2.37-1.36-4.78-2.65-7.24-3.85-1.22-.61-2.46-1.19-3.71-1.76l-1.5-.66h0l-.05,0h0l-.07,0h0l-.1,0-.08,0-.05,0-.26-.11-.12-.05-.18-.08A128.79,128.79,0,0,0,379.47,276l1.15.14-2-.26.85.12a131.63,131.63,0,0,0-32.53.05l1-.15-2,.27,1-.12a125.86,125.86,0,0,0-16.43,3.45q-4,1.13-8,2.52c-1.38.49-2.75,1-4.11,1.53l-1.84.73h0l-.07,0h0l-.06,0-.25.1,0,0,0,0-.1,0-.14.06h0l0,0-.06,0-.09,0a.19.19,0,0,0-.09,0,128.65,128.65,0,0,0-25.83,15.08c-.23.17-.71.57-1,.8l.43-.37-1.31,1c-.91.74-1.82,1.48-2.71,2.24q-2.82,2.4-5.51,5a130.39,130.39,0,0,0-10.52,11.28c-.49.59-1,1.19-1.45,1.79l-.66.84.14-.19a2.14,2.14,0,0,0-.3.39l0,0c-.7,1-1.42,1.93-2.12,2.91q-2.55,3.55-4.84,7.28a131,131,0,0,0-8.34,15.92c0,.13-.11.25-.17.38v0c-.06.13-.16.37-.23.57l.08-.18c-.27.68-.56,1.36-.83,2.05-.49,1.26-1,2.54-1.43,3.82q-1.45,4.08-2.62,8.25a129.32,129.32,0,0,0-3.52,16.65c0-.34.09-.67.13-1l-.27,2c0-.33.09-.65.14-1a131.4,131.4,0,0,0,0,32.92c-.07-.41-.12-.81-.18-1.22.07.53.15,1.07.22,1.61,0-.13,0-.26,0-.39a128.64,128.64,0,0,0,3.71,17.34c.83,2.88,1.76,5.74,2.79,8.56.51,1.39,1,2.77,1.6,4.14a.14.14,0,0,0,0,.06,1,1,0,0,1,0,.1,1.21,1.21,0,0,1,.08.19.14.14,0,0,1,0,.06l0,.08,0,.06.05.12,0,.12c0,.06.05.11.07.17.29.67.6,1.35.9,2a127.93,127.93,0,0,0,7.52,14.17q2.13,3.48,4.48,6.82c.78,1.11,1.58,2.2,2.39,3.29l.62.81a.08.08,0,0,0,0,0l.06.08s0,0,0,0a.1.1,0,0,1,0,0l0,.06s0,0,0,.05h0a0,0,0,0,1,0,0h0c.18.21.34.41.51.63a130.91,130.91,0,0,0,10.94,12q2.79,2.7,5.75,5.25,1.67,1.42,3.39,2.81l1.3,1,0,0,.36.27a129.41,129.41,0,0,0,13.33,8.79q3.56,2,7.24,3.85c1.22.61,2.46,1.19,3.71,1.76l1.68.74.12.05.13.06h0l.22.1.12.05h0l.16.07a128.6,128.6,0,0,0,30.39,8.28,131.8,131.8,0,0,0,33,0l-1.18.17,2-.27-.82.1a127.36,127.36,0,0,0,17.38-3.71c2.89-.83,5.74-1.76,8.57-2.79,1.38-.51,2.74-1,4.11-1.59h0l.26-.11h0l.27-.11.13-.06.11,0,.1,0,.1-.05,2-.88A128.83,128.83,0,0,0,427,500.38c2.32-1.42,4.59-2.92,6.81-4.48q1.66-1.17,3.3-2.4l.36-.27,0,0,1.3-1a128.22,128.22,0,0,0,12-10.94q2.72-2.79,5.25-5.75,1.44-1.67,2.82-3.38c.17-.22.33-.42.51-.63,0,0,0,0,0,0h0a.09.09,0,0,1,0-.05.44.44,0,0,0,.08-.11l0,0,.06-.08a.08.08,0,0,0,0,0l.62-.81A131.07,131.07,0,0,0,469,457.08q2-3.56,3.85-7.23c.6-1.23,1.19-2.47,1.75-3.72.23-.49.45-1,.67-1.49v0l.07-.16h0c0-.07.07-.15.11-.24s0-.07,0-.11l.07-.15a.61.61,0,0,0,0-.12l.06-.16a1.42,1.42,0,0,0,.08-.18A129.56,129.56,0,0,0,484,413.3c0,.19,0,.39-.07.58l.27-2C484.14,412.36,484.07,412.83,484,413.3ZM314.1,104.88c-.16-.22-.32-.43-.47-.65s-.17-.24-.25-.37Q313.74,104.39,314.1,104.88Zm.77,1-.15-.16h0l-.16-.23Zm1.22,1.5c-.12-.12-.22-.25-.33-.37-.32-.38-.63-.77-.95-1.16l-.07-.09a.08.08,0,0,0,0,0C315.19,106.27,315.63,106.84,316.09,107.39Zm-130,67.39v0a.14.14,0,0,0,0-.06S186.05,174.77,186.06,174.78Zm-9.72-16.65c-.09-.11-.61-.81-.8-1l-1.08-1.31c-.22-.27-.43-.53-.61-.8a23.11,23.11,0,0,1,2.24,2.78.76.76,0,0,1,.08.11l.07.09,0,.07v0a0,0,0,0,0,0,0h0A.08.08,0,0,1,176.34,158.13Z"/></clipPath><linearGradient id="b" y1="270.64" x2="544.7" y2="270.64" gradientUnits="userSpaceOnUse"><stop offset="0" stop-color="#6667ab"/><stop offset="0.09" stop-color="#3d86ca"/><stop offset="0.18" stop-color="#00a4da"/><stop offset="0.27" stop-color="#00c0dc"/><stop offset="0.36" stop-color="#00d9d2"/><stop offset="0.45" stop-color="#17e6c4"/><stop offset="0.54" stop-color="#4cf2af"/><stop offset="0.63" stop-color="#7cfb94"/><stop offset="0.72" stop-color="#92fe7c"/><stop offset="0.81" stop-color="#aaff61"/><stop offset="0.9" stop-color="#c6ff40"/><stop offset="0.99" stop-color="#e3ff00"/></linearGradient></defs><g class="b"><rect class="c" y="-1.71" width="544.7" height="544.7"/></g></svg>