<svg xmlns="http://www.w3.org/2000/svg" xmlns:xlink="http://www.w3.org/1999/xlink" viewBox="0 0 540 540"><defs><style>.a{fill:none;}.b{clip-path:url(#a);}.c{fill:url(#b);}</style><clipPath id="a"><path class="a" d="M518.11,173.37a271.56,271.56,0,0,0-51.39-82.8,264.9,264.9,0,0,0-74.79-57.32A270,270,0,0,0,296.4,5.1,264.42,264.42,0,0,0,112,55.74a272.72,272.72,0,0,0-66.32,70.72A262.57,262.57,0,0,0,9.46,214.94a271.86,271.86,0,0,0,.08,110.54A261.31,261.31,0,0,0,56,428.35a292.53,292.53,0,0,0,18.88,22.84,266.63,266.63,0,0,0,65.3,51.35,263.07,263.07,0,0,0,79.53,28.95,264.73,264.73,0,0,0,90.63,1.65A262.38,262.38,0,0,0,391,507.24a265.47,265.47,0,0,0,67.25-48.9q3.51-3.51,6.88-7.15c34.57-37.47,58.57-84.63,67.1-135A278.09,278.09,0,0,0,536.27,270V270A264,264,0,0,0,518.11,173.37Zm-423.62,258,.12-.11.1.11Zm28.29,26.12,1.35,1,1.49,1.17Zm1-33.23h0Zm.11-.08c.14-.13.29-.24.43-.35l.15-.11-.15.13a.1.1,0,0,0-.05,0Zm.6-.47.13-.11.22-.17.06,0,0,0,.13-.1,0,.05-.36.28Zm4.82-3.57.59-.43c.91-.66,1.83-1.31,2.76-1.94C131.59,418.55,130.47,419.34,129.36,420.14Zm11.17-7.62q1.44-.94,2.91-1.86,1.92-1.2,3.87-2.36C145,409.68,142.77,411.08,140.53,412.52ZM176,393.45l.9-.38.83-.35a2.18,2.18,0,0,1,.23-.09l.11,0c.11-.06.23-.1.34-.15l.7-.27-1.26.52a.09.09,0,0,0-.06,0l-.88.38h0l-.16.07-1,.4,1.05-.46Zm0,95.66,1.48.61,1.86.8Zm7.94-98.83,2.28-.87c.47-.18.94-.35,1.42-.51C186.37,389.35,185.14,389.81,183.91,390.28Zm53.31,115.86.89.1,1.94.28Zm-.45-129.66,1.09-.14,2.14-.29-1.89.27a.16.16,0,0,0-.1,0l-.29,0Zm8.06-.92q4.18-.42,8.38-.68Q249,375.15,244.83,375.56Zm55.12,131,1.94-.28.89-.1ZM300,376l2.66.36-.62-.07a.16.16,0,0,0-.1,0Zm56.34,14.31,1.2.45c.89.35,1.79.7,2.68,1.07C358.88,391.35,357.59,390.85,356.29,390.35Zm4.4,100.17,1.86-.8,1.48-.61Zm2.06-97.59a.18.18,0,0,0-.1,0c-.91-.34-1.33-.5-1.44-.56l.41.14-.49-.22.54.22-1-.43,1.67.71h0l.28.11.19.08.25.11.94.39-.79-.32c.41.17.82.35,1.22.54ZM391,407.28l1.62,1,1.43.87Zm12.52,7.88c1.14.76,2.27,1.53,3.4,2.32l.4.29Q405.4,416.45,403.49,415.16Zm10.89,44.52,1.49-1.17,1.35-1ZM416,424.13a2.34,2.34,0,0,0-.31-.24,2.11,2.11,0,0,1-.23-.19l.62.48.14.11s0,0,0,0h0c.29.25.6.49.9.74L415,423.42c.22.14.59.4,1.14.8Zm90.22-122a252.33,252.33,0,0,1-14.94,56.59c-.38,1-.76,1.92-1.15,2.87,0-.09.09-.18.13-.28-.21.49-.41,1-.63,1.48-1.05,2.44-2.15,4.87-3.28,7.28q-3,6.49-6.47,12.81a249.66,249.66,0,0,1-15.44,24.93q-2.39,3.39-4.88,6.71l-.1.14c0,.06-.21.29-.6.79-.13.17-.26.34-.4.5h0s0,0,0,0c-.75,1-1.51,1.92-2.28,2.86-.5.62-1,1.24-1.53,1.85-.15-.16-.31-.31-.46-.45q-3.75-3.57-7.62-7l-.05-.05q-3.87-3.42-7.87-6.7-2-1.67-4.06-3.26l-2.05-1.6-.1-.08q-2-1.54-4.05-3.06c-1.39-1-2.8-2.05-4.21-3.06s-2.83-2-4.26-3-2.71-1.83-4.07-2.72c-1.64-1.09-3.31-2.15-5-3.2q-2-1.26-4.08-2.49c-2.3-1.38-4.61-2.72-6.95-4l-2.46-1.36-2.2-1.18c-1.49-.79-3-1.57-4.49-2.34l-2.59-1.3c-1.52-.75-3-1.49-4.58-2.21l-.58-.27-2-1c-1.61-.73-3.22-1.46-4.85-2.16l-2.55-1.1-2.35-1A259.49,259.49,0,0,0,336,354.52l-2.13-.53-.58-.14c-1.45-.35-2.91-.69-4.36-1-2.86-.64-5.73-1.22-8.61-1.76l-3.11-.56-3.12-.53a276.13,276.13,0,0,0-84.11-.6l-.29,0q-9.21,1.33-18.3,3.37c-1.62.37-3.23.74-4.85,1.14q-2.75.66-5.47,1.4l-2.56.7c-1,.27-2,.56-3,.85q-8.7,2.53-17.21,5.67h0l-2.49.93q-3.73,1.42-7.42,2.94h0c-1.62.68-3.25,1.37-4.86,2.07l-.06,0c-1.6.71-3.2,1.42-4.79,2.15l-2.41,1.13c-.81.37-1.61.76-2.4,1.14q-2.4,1.16-4.77,2.36l-.13.07-2.31,1.19a259.79,259.79,0,0,0-29.9,18.24l-1.12.8a267.73,267.73,0,0,0-30.19,25.08c-.18-.2-.35-.41-.52-.62-1.2-1.46-2.38-2.95-3.56-4.44l-.18-.24-.9-1.18Q79,412.62,77.87,411a250.07,250.07,0,0,1-15.82-24.67q-3.7-6.6-7-13.41-1.47-3-2.88-6.14c-.49-1.09-1-2.19-1.46-3.29-.07-.17-.15-.35-.23-.52l-.06-.16a.38.38,0,0,1,0-.11.69.69,0,0,1-.05-.13c0-.05,0-.1-.07-.16a259.61,259.61,0,0,1-9.71-28.18,250.85,250.85,0,0,1-6.73-32.2,257.08,257.08,0,0,1,0-64.11,251.93,251.93,0,0,1,16.39-60.21.5.5,0,0,1,0-.13c.06-.12.1-.23.15-.33l0,.09c0-.09.07-.17.11-.25a2,2,0,0,1,.11-.26h0c.05-.11.09-.2.12-.28s0,0,0,0,0,0,0-.06a.06.06,0,0,1,0,0v0s0,0,0,0a.21.21,0,0,1,0-.1s0-.06,0-.07a.08.08,0,0,0,0,0c.45-1,.91-2.09,1.38-3.12q1.66-3.65,3.43-7.25,3.54-7.19,7.52-14.12a252.56,252.56,0,0,1,17.16-26c.21-.28.43-.56.63-.84l.22-.28c.61-.78,1.21-1.55,1.83-2.32,1.79-2.23,3.63-4.44,5.49-6.61q5-5.77,10.25-11.23A253.48,253.48,0,0,1,122.21,83c.73-.6,1.48-1.18,2.21-1.76l1.23-.93c2.11-1.59,4.26-3.15,6.43-4.67q6.51-4.59,13.3-8.75a251.47,251.47,0,0,1,27.67-14.68c1.33-.61,2.67-1.2,4-1.78l.27-.12.22-.09.06,0h0l1.08-.44h0l.13-.05,0,0,.06,0c2.7-1.1,5.42-2.14,8.16-3.15q8.26-3,16.72-5.45a250.65,250.65,0,0,1,33.84-7.24.18.18,0,0,1,.1,0,256.54,256.54,0,0,1,64.22,0,251.54,251.54,0,0,1,60.28,16.39l.05,0,.08,0,.12.05.12,0-.07,0,.19.08.5.22-.12-.06.14.06,0,0a.11.11,0,0,1,.07,0l.44.19h0q1.56.66,3.12,1.38,3.66,1.65,7.26,3.43,7.17,3.53,14.12,7.52a252.33,252.33,0,0,1,26,17.15l1.23.93c.73.58,1.48,1.16,2.21,1.76q3.36,2.69,6.62,5.49,5.76,5,11.23,10.25A254.91,254.91,0,0,1,457,122.21c.62.77,1.22,1.54,1.83,2.32l.22.28c.2.28.42.56.63.84q2.38,3.18,4.68,6.43,4.57,6.51,8.75,13.31a253,253,0,0,1,14.68,27.66c.56,1.25,1.12,2.5,1.66,3.75l.19.45a.5.5,0,0,0,.05.13.09.09,0,0,1,0,.06c.26.66.42,1.06.51,1.27h0a.11.11,0,0,1,0,.07,1.11,1.11,0,0,1,.07.16q1.65,4.05,3.15,8.16,3,8.26,5.45,16.72a251.15,251.15,0,0,1,7.25,33.85.3.3,0,0,1,0,.1,255.37,255.37,0,0,1,0,64.35ZM341.05,188.43a94.38,94.38,0,0,0-44.23-33.75,92.7,92.7,0,0,0-68.38,2.06l-.09,0a95.39,95.39,0,0,0-23.46,15.36,96.54,96.54,0,0,0-25.63,36.62,2.73,2.73,0,0,1-1.2,1.46,92.81,92.81,0,0,0,106,122.7,92.85,92.85,0,0,0,72.82-76.14,98.6,98.6,0,0,0,1.2-14.76V242A92.87,92.87,0,0,0,341.05,188.43Zm6.51,65a.58.58,0,0,1,0-.1s0-.07,0-.1h0c0-.09,0-.17,0-.26s0-.06,0-.08C347.68,252.58,347.59,253.35,347.56,253.47Zm-16.65-62.42a3.86,3.86,0,0,1,.29.38l0,0-.05-.06-.06-.08-.1-.13Zm10.89,83.33v0a1.74,1.74,0,0,1,.1-.19C341.69,274.87,341.72,274.63,341.8,274.38Zm.08-64.56,0,0a.14.14,0,0,1,0,.06l0,0A.14.14,0,0,0,341.88,209.82ZM316,307.8h0a.24.24,0,0,1-.1.08l.08-.07h0l.08-.07.05,0,.06,0C316.24,307.63,316.12,307.72,316,307.8Zm-18.39,10.8-.23.07h0l.07,0Zm-21,5.74-.37.05c-.19,0-.31,0-.14,0l.23,0,.16,0Zm39.26-148.25-.13-.08.11.06.22.14Zm-39.28-16.43h0l-.18,0h.22ZM254.15,324.39h.24Zm-39.91-148,.12-.09h0l.31-.24-.12.1s-.05,0-.07.06h0l0,0-.16.12Zm39.94-16.74.16,0h0l-.11,0ZM233,165.37l0,0h0l-.16.07-.08,0C233.51,165,233.27,165.21,233,165.37Zm0,153.26h0l.15.05.09,0-.16-.05-.45-.14A1.69,1.69,0,0,1,233,318.63Zm-33.5-25.78-.2-.26.05.05.11.14Zm-16.64-39.79c0-.1,0-.2,0-.23a2.7,2.7,0,0,1,0,.28c0,.44,0,.4,0,.22A1.26,1.26,0,0,1,182.84,253.06ZM188.52,210a1.61,1.61,0,0,1,.15-.36h0Zm-5.65,20.79a.15.15,0,0,1,0-.07s0-.06,0-.08v0a.08.08,0,0,0,0,0s0,.09,0,.13v0A0,0,0,0,0,182.87,230.74Zm5.81-21.17,0-.12a.17.17,0,0,1,0,.05h0s0,0,0,0ZM267.25,80.42,258.63,91.2q-5.69,7.08-11.35,14.18l-13.86,17.31-22.1,27.62-1,1.28c-1.2,1.51-2.61,3-3.7,4.59l-21.26,3.24-35,5.33L142.29,166l-.2,0-1.56.23V271.51l-5.87-3.39-5.88,3.39V168.05l-.8.12-14.59,2.22-2.76.4,2.26-2.4,16.67-17.76,20.17-21.48,17.43-18.56,5.72-6.09c.8-.85,1.74-1.68,2.48-2.6,3.07-.71,6.15-1.43,9.22-2.16l23.71-5.56L237,87.45l24.79-5.81C263.58,81.21,265.42,80.82,267.25,80.42Zm-.09,62.88a100.76,100.76,0,0,0-91.7,62.45c-2.88-.1-6-.35-8.58-.67Q156.76,187.56,146.64,170l7.17-1.1,7.19-1.1,4.69-.71,34.91-5.32c2.56-.39,5.3-.56,7.82-1.19a2.23,2.23,0,0,0,1.22-.76l.13-.15a12.53,12.53,0,0,0,1-1.21l.09-.12,1.84-2.3q10.54-13.2,21.11-26.38l10.7-13.38c1.37-1.71,2.79-3.39,4.15-5.1q2.91,5,5.81,10l12,20.8ZM145.52,277.79v43.85l-10.86,6.28-10.87-6.28V277.79l5-2.89,5.88-3.39,5.87,3.39Z"/></clipPath><linearGradient id="b" x1="-2.17" y1="270.64" x2="542.52" y2="270.64" gradientUnits="userSpaceOnUse"><stop offset="0" stop-color="#6667ab"/><stop offset="0.09" stop-color="#3d86ca"/><stop offset="0.18" stop-color="#00a4da"/><stop offset="0.27" stop-color="#00c0dc"/><stop offset="0.36" stop-color="#00d9d2"/><stop offset="0.45" stop-color="#17e6c4"/><stop offset="0.54" stop-color="#4cf2af"/><stop offset="0.63" stop-color="#7cfb94"/><stop offset="0.72" stop-color="#92fe7c"/><stop offset="0.81" stop-color="#aaff61"/><stop offset="0.9" stop-color="#c6ff40"/><stop offset="0.99" stop-color="#e3ff00"/></linearGradient></defs><g class="b"><rect class="c" x="-2.17" y="-1.71" width="544.7" height="544.7"/></g></svg>